<?xml version="1.0" encoding="UTF-8" standalone="no"?>
<!-- Created with Inkscape (http://www.inkscape.org/) -->

<svg
   version="1.1"
   id="svg1"
   width="5333.3335"
   height="5333.3335"
   viewBox="0 0 5333.3335 5333.3335"
   sodipodi:docname="500_100.eps"
   xmlns:inkscape="http://www.inkscape.org/namespaces/inkscape"
   xmlns:sodipodi="http://sodipodi.sourceforge.net/DTD/sodipodi-0.dtd"
   xmlns="http://www.w3.org/2000/svg"
   xmlns:svg="http://www.w3.org/2000/svg">
  <defs
     id="defs1" />
  <sodipodi:namedview
     id="namedview1"
     pagecolor="#ffffff"
     bordercolor="#000000"
     borderopacity="0.25"
     inkscape:showpageshadow="2"
     inkscape:pageopacity="0.0"
     inkscape:pagecheckerboard="0"
     inkscape:deskcolor="#d1d1d1">
    <inkscape:page
       x="0"
       y="0"
       inkscape:label="1"
       id="page1"
       width="5333.3335"
       height="5333.3335"
       margin="0"
       bleed="0" />
  </sodipodi:namedview>
  <g
     id="g1"
     inkscape:groupmode="layer"
     inkscape:label="1">
    <g
       id="group-R5">
      <path
         id="path3"
         d="m 21996,17540.6 c -68,0 -123.2,55.2 -123.2,123.2 v 9140.5 c 0,68 55.2,123.1 123.2,123.1 68,0 123.1,-55.1 123.1,-123.1 v -9140.5 c 0,-68 -55.1,-123.2 -123.1,-123.2"
         style="fill:#371a45;fill-opacity:1;fill-rule:nonzero;stroke:none"
         transform="matrix(0.13333333,0,0,-0.13333333,0,5333.3333)" />
      <path
         id="path4"
         d="m 16632.7,13812.5 c 0,0 -3031,-789.8 -3139.2,-1978.9 -94.2,-1036.9 1042.3,-4533 1709.8,-4917 487,-280.1 1954.9,233.6 1954.9,233.6 l -525.5,6662.3"
         style="fill:#ffffff;fill-opacity:1;fill-rule:nonzero;stroke:none"
         transform="matrix(0.13333333,0,0,-0.13333333,0,5333.3333)" />
      <path
         id="path5"
         d="m 15807.3,7017.3 c -19.6,0 -39.1,0.4 -58.6,1 -0.1,0.8 -0.2,1.6 -0.3,2.4 -8,80.4 -18.4,159.1 -30.1,236.8 17,-5.1 34.2,-10 51.6,-14.7 72.2,-19.2 147.8,-33.7 229.2,-38.4 13.5,-0.6 27.2,-0.9 41.1,-0.9 70,0 145.4,9.1 223,40.3 46.3,19.2 91.7,47.7 130.5,83.7 39.6,35.8 69,80.2 91.7,123.5 5.4,10.5 10.6,21.4 15.3,32.7 0.2,-4 0.4,-8.1 0.5,-12.2 3.7,-93.1 8.3,-210 5.4,-348.2 -212.7,-58.9 -458,-106 -699.3,-106"
         style="fill:#b9afbe;fill-opacity:1;fill-rule:nonzero;stroke:none"
         transform="matrix(0.13333333,0,0,-0.13333333,0,5333.3333)" />
      <path
         id="path6"
         d="m 15808.7,6718.2 c -314.8,0 -631.6,67.9 -894.4,262.1 -725.9,536.2 -1632.2,3805.3 -1570.5,4862 59,1010.4 1911.4,1632.4 1990.2,1658.4 79,26 163.5,-16.9 189.4,-95.5 25.9,-78.6 -16.8,-163.5 -95.4,-189.4 -483.2,-159.6 -1745.6,-720.6 -1784.7,-1390.9 -59.1,-1012.1 865.8,-4172.3 1449.2,-4603.3 709.7,-524.3 2021.2,125.6 2034.4,132.3 73.8,37.1 164.1,7.5 201.4,-66.6 37.3,-74 7.5,-164.2 -66.5,-201.4 -41.9,-21.1 -742.1,-367.7 -1453.1,-367.7"
         style="fill:#371a45;fill-opacity:1;fill-rule:nonzero;stroke:none"
         transform="matrix(0.13333333,0,0,-0.13333333,0,5333.3333)" />
      <path
         id="path7"
         d="m 20121.9,13426.8 c 0,0 -132.3,-1072.5 332.6,-337 424.3,671.8 952.5,1791.9 1418.7,3618.2 3.9,14.8 7.8,30.1 11.8,45 0,0 209.9,18.3 467.4,147.1 607.2,303.3 477.2,1485.8 359.7,1887.8 -137.9,473.7 -464,345.8 -464,345.8 -114.3,187.2 -340,286.7 -720.2,281.1 -713.7,-10.5 -859.1,-587.6 -859.1,-587.6 -654.3,-1969 -1451.3,-3182.5 -1925.8,-3787.1 -251,-320.8 -411.6,-470.1 -411.6,-470.1 l 1790.5,-1143.2"
         style="fill:#ffffff;fill-opacity:1;fill-rule:nonzero;stroke:none"
         transform="matrix(0.13333333,0,0,-0.13333333,0,5333.3333)" />
      <path
         id="path8"
         d="m 20398.2,13233.9 c -97.4,148 -196.6,288.2 -296.1,420.2 -45.7,60.7 -93.7,120 -142.7,178.5 -62,73.8 -126.4,145.9 -189.3,214.7 -112,121.5 -221.1,233.8 -314,332.6 l -79.9,-67.7 c 5,7.4 9.9,14.8 14.8,22.2 53.8,82.2 99.7,155.9 140.3,225.2 9.8,16.6 19.5,33.3 29.2,50.1 98,-21.1 198,-32.6 298.2,-32.6 291.9,0 585.7,97.4 838.5,338.2 198.3,188.9 342.4,454.4 458.3,727 103.8,-17.2 215.5,-26.5 335.5,-26.5 23.5,0 47.5,0.3 71.8,1 -341.8,-1079.3 -696.6,-1836 -1006.3,-2360 -19.2,8.5 -40.1,12.9 -61.1,12.9 -28.8,0 -57.9,-8.3 -83.6,-25.6 -4.8,-3.2 -9.3,-6.6 -13.6,-10.2 m 1225.7,2579.8 c -9.2,2.9 -19.1,4.4 -29.2,4.4 -1.6,0 -3.1,0 -4.6,-0.1 -33.4,-1.5 -66,-2.2 -98,-2.2 -92.1,0 -178.7,6 -259.9,17.2 12.1,31.7 24,63.2 35.5,94.5 92.1,249.7 43.7,526 -114.3,739.9 -146.7,199 -272.4,552.2 -146.7,1155.4 0,0 55,-625.5 358.8,-897 121.4,-108.2 351.4,-179.8 507.7,-217.8 -81.5,-319.3 -164.9,-616.8 -249.3,-894.3"
         style="fill:#b9afbe;fill-opacity:1;fill-rule:nonzero;stroke:none"
         transform="matrix(0.13333333,0,0,-0.13333333,0,5333.3333)" />
      <path
         id="path9"
         d="m 22075.7,16792.4 c 6.8,1.9 13.7,3.9 20.7,6 -2,-0.7 -9.1,-3.1 -20.7,-6 m 21.8,6.4 c 58.2,17.5 125.4,41.4 197.5,73.9 -58.6,-30.9 -124.2,-56.1 -197.5,-73.9"
         style="fill:#677cbe;fill-opacity:1;fill-rule:nonzero;stroke:none"
         transform="matrix(0.13333333,0,0,-0.13333333,0,5333.3333)" />
      <path
         id="path10"
         d="m 21946,16777.1 c -190.6,0 -523.5,92 -772.3,656.8 0,0 167.9,-83.8 573,-83.8 51.4,0 106.5,1.4 165.6,4.4 521.8,26.8 875.8,523.5 875.8,523.5 0,0 29.3,-729.6 -493.1,-1005.3 -72.1,-32.5 -139.3,-56.4 -197.5,-73.9 -0.1,-0.1 -0.3,-0.1 -0.5,-0.2 0,0 -0.2,0 -0.6,-0.2 -7,-2.1 -13.9,-4.1 -20.7,-6 -24.9,-6.4 -70.4,-15.3 -129.7,-15.3"
         style="fill:#b9afbe;fill-opacity:1;fill-rule:nonzero;stroke:none"
         transform="matrix(0.13333333,0,0,-0.13333333,0,5333.3333)" />
      <path
         id="path11"
         d="m 18407.1,14553.8 c -42.9,0 -85.7,17.8 -116.3,52.7 -56.2,64.2 -49.8,161.8 14.3,218.1 18,16 1244.3,1127.5 2215.3,4046.3 63.6,240.9 352.3,688.7 1005.2,698.5 368.9,5.2 626.7,-81.2 788.1,-264.9 168.6,-192 219.5,-471.2 160.2,-878.6 -58.6,-402 -330.9,-683.6 -632.7,-655.4 -277.4,26 -562.4,326.6 -530,1092.3 3.6,85.2 74.6,151 161,147.9 85.3,-3.6 151.5,-75.7 147.9,-161 -21.7,-511.9 114.4,-758.7 250,-771.4 114.5,-9.7 260.5,136.2 297.8,392.2 44.7,306.7 16.4,512.8 -86.6,630 -96.4,110 -282.1,163.9 -551.1,159.7 -588.3,-8.7 -710.4,-466.3 -711.5,-470.9 l -3.3,-11 c -1003.3,-3019.1 -2253.7,-4139.9 -2306.4,-4186.2 -29.4,-25.6 -65.7,-38.3 -101.9,-38.3"
         style="fill:#371a45;fill-opacity:1;fill-rule:nonzero;stroke:none"
         transform="matrix(0.13333333,0,0,-0.13333333,0,5333.3333)" />
      <path
         id="path12"
         d="m 19648.7,12001.4 c -53.2,0 -105.1,27.6 -133.8,76.9 -42.9,73.8 -17.8,168.5 56,211.3 11,6.7 1219.9,773.6 2164,4501.3 l 27,106.5 109.4,9.5 c 1.2,0.1 187.1,19 412,131.4 483.6,241.8 397.9,1304 280.6,1706.2 -35.2,120.7 -86.3,201.4 -147.8,233.5 -56.8,29.6 -112.4,11.3 -114.8,10.5 -79.4,-31.2 -167.6,8.6 -198.8,88.1 -31.2,79.5 9.5,169.7 89,200.9 18,7.1 180.9,66.4 357.7,-20.4 145,-71.3 249.9,-214.6 311.5,-426 147.5,-505.8 241.6,-1729 -439.2,-2069.3 -166.1,-83.1 -315.6,-124.6 -411.9,-144.8 -980.3,-3799.9 -2230.2,-4563.8 -2283.3,-4594.6 -24.5,-14.2 -51.2,-21 -77.6,-21"
         style="fill:#371a45;fill-opacity:1;fill-rule:nonzero;stroke:none"
         transform="matrix(0.13333333,0,0,-0.13333333,0,5333.3333)" />
      <path
         id="path13"
         d="m 21777.2,16595.8 c -193.9,0 -355.9,62.5 -482.7,186.4 -244.7,239 -334.9,689.4 -268.2,1338.7 65.3,634.4 349.6,734.4 405.9,748 l 70.4,-291.6 c 0,0 4.2,0.3 11.2,3.3 -1.4,-0.6 -145.6,-67.9 -189,-490.4 -55.4,-538.1 8.3,-926.4 179.3,-1093.4 85.9,-84 204.3,-115 361.8,-95 82,9.8 157.2,-47.8 167.7,-130 10.4,-82.2 -47.8,-157.2 -130,-167.7 -43.5,-5.5 -85.6,-8.3 -126.4,-8.3"
         style="fill:#371a45;fill-opacity:1;fill-rule:nonzero;stroke:none"
         transform="matrix(0.13333333,0,0,-0.13333333,0,5333.3333)" />
      <path
         id="path14"
         d="m 15452.8,10268.4 c 73,-151.4 128.3,-307.7 174.5,-467.6 145.4,-499.3 202.9,-1031.2 431.3,-1535.9 56.6,-125 125.5,-233.3 196.6,-324.4 22.2,-28.5 44.4,-55.2 66.6,-80.6 168.1,-190.7 325.8,-285.9 325.8,-285.9 0.9,-49.8 4.5,-113.3 6.8,-188.9 9.9,-310.8 6.3,-831.4 -218,-1480.6 -16.3,-48 -33.5,-96.5 -53,-145.4 -150.4,-390.1 -59.3,-1652.8 105.1,-1941 472.6,-830.9 1656.9,-704.5 1994,-137.2 304.9,514.6 177.1,1513.2 119.6,1864.3 -13.2,80.2 -22.7,126.4 -22.7,126.4 312.6,654.2 581.3,1532.7 581.3,2191 0,0 84.3,-14 198.4,-15.4 l -0.4,-21.7 c 44.8,-407.3 -30.8,-1102.8 -179,-1738.4 -16.3,-70.3 -33.5,-140 -51.6,-208.4 -87.5,-329.9 74.7,-1372.8 510.6,-1891.1 505.1,-601.7 1612,-391.5 1834,57.5 267.3,539.2 -82,1444.4 -215.7,1752.9 -29.9,68.4 -48.9,106.9 -48.9,106.9 557.2,1318.9 589.8,2447 491.1,3586.9 -155.9,1786.9 -866.7,3193.6 -1597.1,4162.3 -45.7,60.7 -93.7,120 -142.7,178.5 -62,73.8 -126.4,145.9 -189.3,214.7 -112,121.5 -221.1,233.8 -314,332.6 l -127.3,-107.9 -207.1,-48 -3435.1,-800.1 -29.9,-403.2 -13.1,-180.8 -28.6,-388.3 -72.4,-975.4 -43.1,-583.5 -35.8,-479.4 -10.9,-144.9"
         style="fill:#ffffff;fill-opacity:1;fill-rule:nonzero;stroke:none"
         transform="matrix(0.13333333,0,0,-0.13333333,0,5333.3333)" />
      <path
         id="path15"
         d="m 20522.9,3765.7 c -317.6,0 -597.7,113.8 -769.4,318.1 -415.4,494.6 -551.8,1487.7 -480.7,1756.1 38.5,145.5 73.2,295.5 103.6,446 21.4,-304.4 104.9,-1160.2 388.9,-1680 172.9,-316.1 495.3,-487.3 819.3,-487.3 214.2,0 429.2,74.9 601.9,232.3 117.2,106.7 186.5,233 223.1,365.8 23.8,-225.3 10.4,-440.8 -71,-605.3 -79.8,-161.2 -347.4,-299.3 -650.9,-335.7 -55.8,-6.7 -110.8,-10 -164.8,-10"
         style="fill:#b9afbe;fill-opacity:1;fill-rule:nonzero;stroke:none"
         transform="matrix(0.13333333,0,0,-0.13333333,0,5333.3333)" />
      <path
         id="path16"
         d="m 17544.8,3375 c -4.9,0 -9.9,0 -14.8,0.1 -394.2,3.6 -726.3,192.1 -911.4,517.1 -129.4,227.5 -213.9,1264.9 -124.7,1706 -50,-729 -46.5,-1775.5 964.9,-1775.3 70.2,0 145.4,5 225.7,15.6 544.3,72 609.8,525.5 594.5,932.8 -15,409 -180.8,538.8 -324.8,573.5 93.6,29.8 178.6,66.4 255.5,107.2 l 245.9,58.4 c 55.8,-345.6 174.1,-1287.5 -102.4,-1753.2 -135.7,-228.5 -457.6,-382.2 -808.4,-382.2"
         style="fill:#b9afbe;fill-opacity:1;fill-rule:nonzero;stroke:none"
         transform="matrix(0.13333333,0,0,-0.13333333,0,5333.3333)" />
      <path
         id="path17"
         d="m 17702.7,5287.3 c -68.8,0 -96.7,96.3 -31.2,131.3 310.6,166.1 764,586 887.8,1159.1 106.1,491.5 61.6,971.4 1.5,1299.8 -40.4,221.1 122,427 346.6,437.2 403.5,18.3 988.8,64.6 1373.4,181.4 258.2,78.4 525,185.9 752.4,382.4 28.9,25.1 62.8,36.4 96,36.4 72.7,0 141.8,-54.4 147,-138.1 7.3,-119 -2.3,-241.4 -59.2,-302.9 -29.5,-32 -73.9,-65.1 -130.7,-98.8 44.2,122.7 50.3,199.3 50.3,199.3 -323.8,-312.6 -839.4,-509.6 -1232.1,-622.7 -120.8,-32.1 -243.4,-62.9 -365.3,-91.8 -11.4,-2.4 -22.3,-4.7 -32.7,-6.9 -13.4,70.8 -75.4,122 -147.2,122 -5.4,0 -10.9,-0.3 -16.4,-0.9 -51.1,-5.6 -93.4,-36.2 -116,-78.3 -25,18.5 -55.9,29.4 -89.4,29.4 -82.8,0 -149.9,-67.1 -149.9,-150 0,-573.9 -198.1,-1317.2 -543.4,-2039.3 l -21.7,-45.3 10,-49.3 c 0.3,-1.3 3,-15.1 7.5,-39.5 -66.9,-52.6 -143.4,-103.8 -230.3,-149.8 l -437.5,-104.1 c 21.1,4 50.9,8.1 85.5,8.1 29.4,0 62.3,-2.9 96.5,-11.2 -74.3,-23.6 -153.9,-42.9 -239.1,-56.5 -4.3,-0.7 -8.4,-1 -12.4,-1 m 35.9,52.8 v 0 0 0 0 c 0.3,0 2,0.5 5.2,1.3 l -5.2,-1.3 v 0 0 m 31.4,7.4 c -12.2,-2.2 -21.4,-4.4 -26.2,-6.1 l 26.2,6.1"
         style="fill:#b9afbe;fill-opacity:1;fill-rule:nonzero;stroke:none"
         transform="matrix(0.13333333,0,0,-0.13333333,0,5333.3333)" />
      <path
         id="path18"
         d="m 17743.8,5341.4 c 4.8,1.7 14,3.9 26.2,6.1 l -26.2,-6.1"
         style="fill:#8f889d;fill-opacity:1;fill-rule:nonzero;stroke:none"
         transform="matrix(0.13333333,0,0,-0.13333333,0,5333.3333)" />
      <path
         id="path19"
         d="m 17738.6,5340.1 v 0 0 m 0,0 v 0 0 m 0,0 v 0 0 m 0,0 5.2,1.3 c -3.2,-0.8 -4.9,-1.3 -5.2,-1.3"
         style="fill:#8f889d;fill-opacity:1;fill-rule:nonzero;stroke:none"
         transform="matrix(0.13333333,0,0,-0.13333333,0,5333.3333)" />
      <path
         id="path20"
         d="m 17954.2,5344.8 c -34.2,8.3 -67.1,11.2 -96.5,11.2 -34.6,0 -64.4,-4.1 -85.5,-8.1 l 437.5,104.1 c -76.9,-40.8 -161.9,-77.4 -255.5,-107.2"
         style="fill:#8c7b94;fill-opacity:1;fill-rule:nonzero;stroke:none"
         transform="matrix(0.13333333,0,0,-0.13333333,0,5333.3333)" />
      <path
         id="path21"
         d="m 19459.9,6775.2 c 57.8,414.8 77.4,799.7 48.3,1066 -0.4,3.7 -0.9,7.4 -1.6,11 10.8,2.6 21.7,5.1 32.6,7.7 95.2,20.5 222,50.5 365.3,91.8 488.2,129.9 943.7,282.2 1181.8,423.4 -91.2,-253 -344.6,-702.2 -1040.7,-1081.7 -269.5,-146.9 -452.4,-316.1 -585.7,-518.2"
         style="fill:#b9afbe;fill-opacity:1;fill-rule:nonzero;stroke:none"
         transform="matrix(0.13333333,0,0,-0.13333333,0,5333.3333)" />
      <path
         id="path22"
         d="m 19506.6,7852.2 c 0,0.3 -0.1,0.6 -0.1,0.8 10.4,2.2 21.3,4.5 32.7,6.9 -10.9,-2.6 -21.8,-5.1 -32.6,-7.7 m 397.9,99.5 c 392.7,113.1 908.3,310.1 1232.1,622.7 0,0 -6.1,-76.6 -50.3,-199.3 -238.1,-141.2 -693.6,-293.5 -1181.8,-423.4"
         style="fill:#8c7b94;fill-opacity:1;fill-rule:nonzero;stroke:none"
         transform="matrix(0.13333333,0,0,-0.13333333,0,5333.3333)" />
      <path
         id="path23"
         d="m 20523.4,3465.8 c -406.4,-0.1 -770.5,152.3 -999.6,425.1 -473.2,563.5 -636.3,1666.2 -541,2025.8 177.9,672 273.5,1467.7 227.2,1892 -9,82.4 50.5,156.4 132.9,165.4 82.5,9 156.3,-50.6 165.3,-132.9 50.6,-463.7 -46.2,-1286.7 -235.4,-2001.3 -71.1,-268.4 65.3,-1261.5 480.7,-1756.1 200.8,-239 550.1,-354.1 934.2,-308.1 303.5,36.4 571.1,174.5 650.9,335.7 239.7,484.4 -110.2,1411.2 -265.2,1727.4 l -30.1,61.4 26.6,63.1 c 572.6,1354.4 568.9,2490 479.7,3515.4 -123.1,1414.8 -497.6,2545.1 -1178.5,3557.2 -46.2,68.8 -28,162 40.7,208.2 68.8,46.4 162,28 208.2,-40.7 710.4,-1056 1100.7,-2231.2 1228.4,-3698.7 91.3,-1048.4 95.7,-2209.1 -476.3,-3596.3 120.9,-266.3 548.7,-1297 235.4,-1930.1 -128.1,-258.6 -466.8,-450.4 -884,-500.5 -67.5,-8.1 -134.4,-12 -200.1,-12"
         style="fill:#371a45;fill-opacity:1;fill-rule:nonzero;stroke:none"
         transform="matrix(0.13333333,0,0,-0.13333333,0,5333.3333)" />
      <path
         id="path24"
         d="m 19932.3,13895.4 c 75.6,-45.7 145,-96.8 213.2,-149.3 67.3,-53.2 132.7,-108.4 195.4,-166.3 62.6,-58 124.8,-116.9 179.3,-182.8 54.6,-65.7 105.3,-135.4 142.4,-215.9 35.2,-76.3 1.9,-166.8 -74.5,-202 -58.8,-27.2 -126.1,-13.6 -169.9,29 l -2.2,2.1 c -58.3,56.9 -107.4,121.4 -154.5,188.5 -47.3,66.9 -88.9,139.2 -131.2,211.4 -42.3,72.3 -83,146.4 -122.4,222 -38.5,76.2 -76.6,153.3 -108.4,235.8 -4.6,11.7 1.3,24.8 12.9,29.3 6.8,2.6 14.1,1.7 19.9,-1.8"
         style="fill:#371a45;fill-opacity:1;fill-rule:nonzero;stroke:none"
         transform="matrix(0.13333333,0,0,-0.13333333,0,5333.3333)" />
      <path
         id="path25"
         d="m 15766.9,10512.7 115.7,-321.7 -8.8,147.5 c -28.8,59.4 -63.7,117.9 -106.9,174.2"
         style="fill:#ffffff;fill-opacity:1;fill-rule:nonzero;stroke:none"
         transform="matrix(0.13333333,0,0,-0.13333333,0,5333.3333)" />
      <path
         id="path26"
         d="m 17541.3,3075 c -4.7,0 -9.4,0 -14.1,0.1 -503.8,4.6 -930,248.3 -1169.3,668.7 -182.6,320.9 -282.9,1632.4 -114.3,2069 293.2,759.6 270,1344.5 257.6,1658.7 -0.3,7.3 -0.6,14.3 -0.8,21.2 -129.3,94.7 -406.8,330.2 -578.6,710.2 -162.5,359.6 -225.3,771.8 -286,1170.5 -65.8,431.9 -127.9,839.8 -308.1,1114.1 -45.4,69.2 -26.2,162.2 43,207.7 69.3,45.4 162.3,26.2 207.8,-43 216.1,-329.1 283,-768.4 353.9,-1233.6 57.7,-378.7 117.3,-770.2 262.8,-1092.1 185.1,-409.7 527.2,-622.8 530.6,-624.9 l 69.8,-42.8 2.2,-82.2 c 0.5,-26.9 1.8,-58.1 3.2,-93.2 12.3,-312 38,-961.2 -277.6,-1778.6 -134,-347.2 -46.3,-1563.9 95.2,-1812.6 185.1,-325 517.2,-513.5 911.4,-517.1 356.5,-4.4 685.6,150.3 823.2,382.1 340.7,573.9 82,1871 79.3,1884.1 l -10,49.3 21.7,45.3 c 345.3,722.1 543.4,1465.4 543.4,2039.3 0,82.9 67.1,150 149.9,150 82.9,0 150.1,-67.1 150.1,-150 0,-605.1 -200.7,-1376.7 -551.6,-2123.9 47.9,-260.4 237.1,-1437.6 -124.9,-2047.2 -191.3,-322.3 -610.2,-529.1 -1069.8,-529.1"
         style="fill:#371a45;fill-opacity:1;fill-rule:nonzero;stroke:none"
         transform="matrix(0.13333333,0,0,-0.13333333,0,5333.3333)" />
      <path
         id="path27"
         d="m 19088.6,7943 c 84.5,26.1 169.7,48.2 255.2,68.7 84.8,23.5 170.2,44 255.5,64.9 169.5,45.1 341,84.4 509.4,134.3 168.8,48.3 336.9,100.6 501.7,162.2 164.4,61.3 330.1,127.6 482.3,214.9 l 1.3,0.8 c 8.6,4.9 19.5,1.9 24.5,-6.6 4,-7.2 2.7,-15.9 -2.7,-21.5 -65.1,-66.7 -137.6,-121.2 -211.6,-174.7 -73.9,-53.7 -151.8,-101.2 -230.3,-147.5 -157.8,-91.3 -322.4,-170.2 -490.3,-240.1 -167.6,-71.1 -339,-132 -513.1,-183.5 -87.2,-24.8 -175.1,-47.2 -263.3,-67.9 -88.6,-18.6 -177.5,-35.6 -267.2,-48.7 -68.4,-9.9 -131.9,37.5 -141.9,105.9 -9,61.9 28.9,119.9 86.9,137.7 l 3.6,1.1"
         style="fill:#371a45;fill-opacity:1;fill-rule:nonzero;stroke:none"
         transform="matrix(0.13333333,0,0,-0.13333333,0,5333.3333)" />
      <path
         id="path28"
         d="m 22149.9,12822.7 c -109.4,0 -180,15.5 -182.6,16.1 -67.2,15.8 -108.9,83.2 -93,150.4 15.8,67.1 82.5,108.7 150.3,93 30.7,-7 766.1,-160 1066.8,832.6 179,591.2 -231.2,1134 -627.9,1659 -304.7,403.3 -592.6,784.3 -592.6,1172.7 0,69.1 56,125 125,125 69.1,0 125,-55.9 125,-125 0,-304.6 263.3,-653 542.1,-1022 414.1,-548 883.5,-1169.3 667.6,-1882.2 -272.3,-899 -876.4,-1019.6 -1180.7,-1019.6"
         style="fill:#371a45;fill-opacity:1;fill-rule:nonzero;stroke:none"
         transform="matrix(0.13333333,0,0,-0.13333333,0,5333.3333)" />
      <path
         id="path29"
         d="m 21014.2,9845.9 c -164.5,-86.5 -350.2,-180.3 -551.8,-276.4 124.1,48.5 237.8,94.7 338.8,136.9 80.7,33.9 152.7,81.5 213,139.5"
         style="fill:#ffffff;fill-opacity:1;fill-rule:nonzero;stroke:none"
         transform="matrix(0.13333333,0,0,-0.13333333,0,5333.3333)" />
      <path
         id="path30"
         d="m 17688.2,5357.8 c 98.1,27.5 192.8,63.5 280.6,107.2 88.4,42.7 170.6,93.3 245.1,151 74.8,57.2 142.3,120.5 204,188.3 14.9,17.6 32.7,32.1 46.4,50.7 14.3,18 29.3,35.4 44.8,52.5 30.2,34.7 56.1,73.3 89.2,107.5 l 11.6,11.9 c 48,49.6 127.1,50.8 176.6,2.8 40.1,-38.9 48.4,-98.2 24.8,-145.6 -50.3,-100.6 -117.6,-194.3 -201.6,-271.5 -81,-80.3 -179.6,-141.1 -280.3,-190.1 -101,-49.4 -208.5,-82.2 -316.6,-99.7 -108.4,-16.9 -217.3,-20.7 -324.7,-0.7 -9.8,1.8 -16.3,11.3 -14.5,21.1 1.3,7 6.5,12.3 12.9,14.1 l 1.7,0.5"
         style="fill:#371a45;fill-opacity:1;fill-rule:nonzero;stroke:none"
         transform="matrix(0.13333333,0,0,-0.13333333,0,5333.3333)" />
      <path
         id="path31"
         d="m 20421.2,5528.3 c 181,84.3 343.1,193.2 473.7,323 65.9,64.4 123.6,134.2 176,206.5 55.5,70.5 98.2,148.3 151.6,223.2 l 6.7,9.4 c 40.1,56.4 118.3,69.5 174.6,29.4 46.9,-33.4 63.8,-93.2 45.1,-144.8 -37.6,-103.4 -92.6,-202 -165.7,-285.9 -69.9,-86.5 -158,-156.8 -249.9,-215.6 -91.9,-59.3 -191.3,-104.5 -293.4,-135.4 -102.4,-30.3 -206.8,-48.8 -313.3,-45.1 -10,0.3 -17.8,8.7 -17.5,18.7 0.3,7.1 4.5,13 10.5,15.8 l 1.6,0.8"
         style="fill:#371a45;fill-opacity:1;fill-rule:nonzero;stroke:none"
         transform="matrix(0.13333333,0,0,-0.13333333,0,5333.3333)" />
      <path
         id="path32"
         d="m 14150.3,6060.3 c 279.1,-80.6 1486.5,-324.4 1453.4,811.5 -6.8,239.6 -84.7,626.1 -79.3,626.5 1.8,0.2 71.3,-34.9 170.2,-70.1 203,-72 529.9,-144.1 650.8,88.3 65.2,125.5 45.3,241 -23.6,343.4 -18.6,27.6 -41.2,54.8 -66.6,80.6 -218.8,222.9 -656,367.5 -841.8,391.5 0,0 1.4,15.4 4.1,43.9 16.3,175.4 84.3,845 209.8,1424.9 67.9,313.1 152.7,600.3 255,769.3 l -88.8,624.3 -41.2,291.8 -137.3,965.4 -69.3,486.2 c -15.8,0 -1079.2,-4.6 -1488.3,-1225.1 -0.9,-2.3 -1.3,-4.5 -2.2,-6.8 -244.7,-737.1 -293.2,-2098.1 -176.3,-3948.9 33.1,-523.2 -318.5,-1525.4 271.4,-1696.7"
         style="fill:#ffffff;fill-opacity:1;fill-rule:nonzero;stroke:none"
         transform="matrix(0.13333333,0,0,-0.13333333,0,5333.3333)" />
      <path
         id="path33"
         d="m 16804,7402.4 c -1,29.1 -2,56.1 -3,81 -1.4,35.1 -2.7,66.3 -3.2,93.2 l -2.2,82.2 -69.8,42.8 c -2.1,1.3 -128.1,79.8 -268.3,232.3 -12.9,20.2 -26.7,39.1 -40.7,56.8 -21.3,26.5 -43.6,50.7 -66.6,72.9 -56.2,76 -110.2,163.7 -155,262.9 -87.9,194.5 -144.5,414.5 -188.2,641.6 76.4,-11.6 205.2,-25.9 376.2,-25.9 346.7,0 867,58.7 1477.6,317.8 l 56.8,-143.2 c 23,-57.9 53,-110.9 88.8,-158.5 17.7,-23.5 36.9,-45.8 57.4,-66.8 0.3,-0.3 0.5,-0.5 0.8,-0.8 0.1,-0.1 0.2,-0.2 0.3,-0.3 12.3,-12.5 25.1,-24.6 38.3,-36.1 -384.6,-167.7 -715.5,-261.3 -990.6,-310.1 -200.7,-35.7 -338.4,-219.7 -315.5,-422.3 43.9,-386.4 29.9,-716.9 29.9,-716.9 l -23,-2.6 m -592.3,2437.8 c -123.5,0.7 -243.3,11.4 -355.2,35.1 -9.7,50.2 -20.1,99.5 -31.4,148.1 12.6,74.1 24.9,147.7 38.3,221 l 19.2,-53.4 -7.1,118.6 c 15.1,78.1 31.6,155.9 51.1,233.5 l 1.6,6.1 c 4.5,18.3 -1,38.3 -16,51.7 -10,8.8 -22.3,13.2 -34.7,13.2 -0.4,0 -0.9,0 -1.4,-0.1 l -82.6,580.4 c 25,22.7 52.6,43.5 82.5,63.4 57.4,37.4 113.4,62 161.4,62 103.9,0 170.4,-115.4 132.6,-466.5 -44,-409.9 -17.9,-740.2 41.7,-1013.1"
         style="fill:#b9afbe;fill-opacity:1;fill-rule:nonzero;stroke:none"
         transform="matrix(0.13333333,0,0,-0.13333333,0,5333.3333)" />
      <path
         id="path34"
         d="m 15882.6,10191 -19.2,53.4 c 3.9,21.7 8,43.5 12.1,65.2 l 7.1,-118.6"
         style="fill:#b9afbe;fill-opacity:1;fill-rule:nonzero;stroke:none"
         transform="matrix(0.13333333,0,0,-0.13333333,0,5333.3333)" />
      <path
         id="path35"
         d="m 16654.4,7385.1 c -2.3,75.6 -5.9,139.1 -6.8,188.9 0,0 -43.3,26.1 -108.7,78.4 1.3,28.8 -0.1,57.9 -4.7,86.6 -11.9,74.2 -41.1,139.3 -76.7,194.9 140.2,-152.5 266.2,-231 268.3,-232.3 l 69.8,-42.8 2.2,-82.2 c 0.5,-26.9 1.8,-58.1 3.2,-93.2 1,-24.9 2,-51.9 3,-81 l -149.6,-17.3 m -304.2,678.5 c -35,34 -71.6,63.6 -108.7,91.1 -60.4,44.1 -122.4,82.1 -185.4,115.8 -116.7,259.3 -188.5,525.7 -250.6,791.1 65.7,-59.1 121.3,-78.8 121.3,-78.8 0,0 27.8,-6.7 80.2,-14.7 43.7,-227.1 100.3,-447.1 188.2,-641.6 44.8,-99.2 98.8,-186.9 155,-262.9 m -493.7,1811.7 c -18.5,4 -36.8,8.3 -54.9,13 l 19,108.5 c 1.5,8.9 3,17.7 4.5,26.6 11.3,-48.6 21.7,-97.9 31.4,-148.1"
         style="fill:#371a45;fill-opacity:1;fill-rule:nonzero;stroke:none"
         transform="matrix(0.13333333,0,0,-0.13333333,0,5333.3333)" />
      <path
         id="path36"
         d="m 15211,8180.2 c -64.3,0 -169.1,64.6 -116.1,515.6 82.5,700.4 272.3,1333.3 368.8,1717.5 11.8,47.6 22.7,91.1 31.3,130.5 60.7,273.7 123.7,495.2 298.5,650.6 v 0 l 82.6,-580.4 c -13.9,-0.3 -27.7,-6.3 -37.6,-17.5 -33.6,-37.9 -69.4,-78.2 -97.8,-121 -27.2,-42.5 -54.1,-86.7 -78,-131.4 -22.4,-44.8 -42.7,-90.6 -64.1,-136.3 -18.9,-46 -35.9,-92.5 -52.8,-139.2 -17.5,-46.8 -30.5,-93.7 -44.4,-141 -14.2,-47.2 -26.7,-94.7 -37.7,-142.2 l -34,-142.7 -28.8,-143.2 c -36.2,-191.1 -63.8,-383.2 -85.1,-575.6 -21,-192.8 -41.2,-383.7 -57.5,-578.8 l -12.4,-149.5 54.8,-6.7 c -7.3,-4 -14.5,-6.1 -21.5,-6.1 -7.8,0 -15.5,2.5 -23,7.8 0,0 -19.3,-10.4 -45.2,-10.4"
         style="fill:#b9afbe;fill-opacity:1;fill-rule:nonzero;stroke:none"
         transform="matrix(0.13333333,0,0,-0.13333333,0,5333.3333)" />
      <path
         id="path37"
         d="m 15926.6,10543.1 c -45.3,-180.3 -74.7,-361.7 -106,-546.3 l -48.4,-276.3 -45.9,-278.4 -87.9,-560.4 c -28.2,-187 -51.7,-376.8 -70.2,-563.2 l -135,167.5 c 81.2,-12.2 149.9,-30.6 219.6,-51 69.1,-20.6 136.5,-44.4 203,-71.3 132.6,-54.3 262.3,-119 385.7,-209 61.4,-45.5 121.7,-97.1 175.3,-164 52.7,-66.4 101.2,-150.5 117.4,-251.7 16.2,-101.3 -6.9,-207.3 -48.8,-288 -22.7,-43.3 -52.1,-87.7 -91.7,-123.5 -38.8,-36 -84.2,-64.5 -130.5,-83.7 -93.1,-37.4 -182.9,-43.1 -264.1,-39.4 -81.4,4.7 -157,19.2 -229.2,38.4 -72.2,19.3 -141.2,43.3 -208.4,70.6 l -50,21 -45.9,20.8 c -11,5.4 10.2,-7.9 49,-11.6 3.5,-37.4 69.1,20.8 121.8,79 53.9,59.4 94.5,118.9 42.2,76.6 l -0.5,8.9 1.1,-8 3.7,-22.8 8.1,-49 c 22.1,-133 43.5,-267.9 57.4,-407.6 7.1,-69.3 11.5,-143.6 9.6,-217.6 -0.4,-73.9 -7.4,-149.3 -20.8,-225.1 -25.5,-150.7 -90.1,-307.6 -198.8,-434.1 -109.3,-126.5 -257.6,-212.4 -405.5,-257.1 -148.8,-47.1 -298.5,-60.3 -443.9,-59.7 -145.5,1.9 -287.8,18.4 -427.8,47.1 -35.1,7.4 -69.9,15.1 -105.2,24.3 -17.9,4.6 -34.7,9 -54.1,15 l -62.1,21.8 c -82.3,33.8 -162,90.2 -220.3,161.5 -59,71.1 -96.4,152 -120.5,229.8 -24,78.3 -35.7,154.8 -42.3,229.2 -12.7,149 -4.4,289.9 7,427.5 12.2,137.3 29.1,271.1 43,401.8 13.5,130.7 24.9,257.3 17.3,374.3 l -22.9,402.3 c -13.6,268.4 -24.8,537 -30.9,806.1 -6,269.1 -8.9,538.6 -3.7,808.6 4.6,269.9 14.4,540.3 37,811.3 22.5,270.9 54.9,542.5 111.7,814.1 13.8,67.9 32,135.7 48.5,203.5 l 30.4,101.7 15.5,50.7 19.3,49.9 c 26.5,66.3 49.5,133.8 79.6,198.8 32.9,64 64.8,128.5 99.2,191.7 39.9,60.6 78.6,121.9 120.1,181.4 l 68.6,85.2 c 23.3,28.1 43.7,58.7 70.5,84 51.8,51.7 99.2,108.6 157.6,153.9 l 85.4,70.4 c 30.3,21.1 61.7,40.6 92.5,60.8 125.8,76.7 262.7,136.5 406.2,165.6 71.5,15.1 144.4,23 217.6,22.1 73.7,-1.4 144.7,-8 219.7,-32.3 28.3,-9.2 43.9,-39.5 34.7,-67.9 -4.9,-15.1 -15.9,-26.6 -29.3,-32.6 l -5.8,-2.6 c -120.5,-53.2 -238.1,-105.3 -348.6,-158 -27.5,-14 -55.6,-25.8 -82.6,-39.9 -26.6,-15 -53.9,-27.9 -80.8,-41.8 -26.5,-14.3 -51.6,-31.3 -78,-45.6 l -39.1,-22.3 -37.2,-25.2 c -25.1,-16.4 -49.8,-33.4 -75.4,-49 l -71.3,-54.8 c -50.2,-33.5 -90.9,-78.7 -136.4,-118.4 -43.7,-41.8 -80.1,-91.1 -120,-136.8 -35.6,-49.6 -67.5,-102.1 -101.8,-152.8 -246.9,-427.5 -316.8,-957 -362.6,-1478.9 -22,-262.1 -31.5,-526.6 -36.1,-791.4 -5.1,-264.8 -2.3,-530.4 3.7,-796.1 6,-265.7 17.1,-531.6 30.6,-797.5 l 22.6,-398.8 c 9.3,-150.3 -4.6,-291.2 -18.3,-426.2 -14.5,-135.4 -31.1,-266.9 -42.5,-396.1 -10.8,-128.7 -17.3,-256 -7,-373.7 9.4,-117.6 38.9,-225.4 92.9,-288.9 26.9,-32.1 59.3,-55.5 100.5,-72.9 l 32.6,-11.3 c 12.5,-4 28,-8.1 42.5,-11.8 29.4,-7.8 59.8,-14.4 90.2,-20.8 242.9,-48.8 501.4,-61.8 716.7,4.6 107.5,32.7 198.2,88.5 264.6,164.6 65.2,77 109.5,175.2 128.4,287.6 9.7,55.9 15.6,114.1 15.8,173.9 1.6,59.8 -1.7,119.1 -8.2,182.9 -12.6,126.5 -32.9,256 -54.7,386.8 l -8.3,50 -4.2,26.7 -2.3,16.8 c -0.5,4.9 -1,4.9 -1.7,21.4 -52,-41.5 -12.2,18.8 41.5,79.1 53,59.6 119.5,119.2 124.4,80.6 40.6,-4.4 63.8,-18.5 54.8,-14 l 45.4,-20.5 42.4,-17.9 c 56.8,-23 114.4,-42.9 171.4,-58.1 57,-15.3 113.5,-25.4 165.7,-28.4 52,-2.7 98.5,3.4 130,16.3 30.7,14.1 47.7,29.2 64.3,60.7 18.8,38.2 23.3,69.2 19.3,100.6 -8.1,63.1 -77.1,148.6 -170.5,215 -92.8,68 -203.8,124.7 -318.5,171.3 -57.5,23.3 -116.4,44.1 -175.4,61.7 -58.4,17.7 -119.6,32.5 -171,38.8 l -147.4,18 12.4,149.5 c 16.3,195.1 36.5,386 57.5,578.8 21.3,192.4 48.9,384.5 85.1,575.6 l 28.8,143.2 34,142.7 c 11,47.5 23.5,95 37.7,142.2 13.9,47.3 26.9,94.2 44.4,141 16.9,46.7 33.9,93.2 52.8,139.2 21.4,45.7 41.7,91.5 64.1,136.3 23.9,44.7 50.8,88.9 78,131.4 28.4,42.8 64.2,83.1 97.8,121 19.1,21.6 52.1,23.5 73.7,4.4 15,-13.4 20.5,-33.4 16,-51.7 l -1.6,-6.1"
         style="fill:#371a45;fill-opacity:1;fill-rule:nonzero;stroke:none"
         transform="matrix(0.13333333,0,0,-0.13333333,0,5333.3333)" />
      <path
         id="path38"
         d="m 14705.4,6136.1 c -126.1,0 -256.2,15.7 -382,41 -30.4,6.4 -60.8,13 -90.2,20.8 -14.5,3.7 -30,7.8 -42.5,11.8 l -32.6,11.3 c -41.2,17.4 -73.6,40.8 -100.5,72.9 -54,63.5 -83.5,171.3 -92.9,288.9 -10.3,117.7 -3.8,245 7,373.7 1.9,20.7 3.8,41.5 5.9,62.3 34.9,-148.3 92.3,-288.8 192.7,-381 56.8,-52.1 190.3,-84.5 354.6,-84.5 296.5,0 693.1,105.4 920,390.4 3.6,-46.4 5.2,-91 4,-135.9 -0.2,-59.8 -6.1,-118 -15.8,-173.9 -18.9,-112.4 -63.2,-210.6 -128.4,-287.6 -66.4,-76.1 -157.1,-131.9 -264.6,-164.6 -103.8,-32 -217.5,-45.6 -334.7,-45.6"
         style="fill:#b9afbe;fill-opacity:1;fill-rule:nonzero;stroke:none"
         transform="matrix(0.13333333,0,0,-0.13333333,0,5333.3333)" />
      <path
         id="path39"
         d="m 14706.7,5981.5 c -238,0 -456.4,49.7 -556,78.5 -418.2,121.4 -301.5,1038.9 -245.6,1528.7 18.5,-125.8 22.1,-356 72.5,-569.9 -2.1,-20.8 -4,-41.6 -5.9,-62.3 -10.8,-128.7 -17.3,-256 -7,-373.7 9.4,-117.6 38.9,-225.4 92.9,-288.9 26.9,-32.1 59.3,-55.5 100.5,-72.9 l 32.6,-11.3 c 12.5,-4 28,-8.1 42.5,-11.8 29.4,-7.8 59.8,-14.4 90.2,-20.8 125.8,-25.3 255.9,-41 382,-41 117.2,0 230.9,13.6 334.7,45.6 107.5,32.7 198.2,88.5 264.6,164.6 65.2,77 109.5,175.2 128.4,287.6 9.7,55.9 15.6,114.1 15.8,173.9 1.2,44.9 -0.4,89.5 -4,135.9 56.1,70.5 101.9,152 133.1,245.6 12.7,-102.6 22.7,-215.2 25.8,-317.8 21.3,-729.7 -469.5,-890.1 -897.1,-890"
         style="fill:#371a45;fill-opacity:1;fill-rule:nonzero;stroke:none"
         transform="matrix(0.13333333,0,0,-0.13333333,0,5333.3333)" />
      <path
         id="path40"
         d="m 20781.6,12203.1 c -3.7,2 -7.5,4 -11.2,6 -8.3,28 -16.3,55.9 -24.2,83.7 11.5,-29.8 23.3,-59.7 35.4,-89.7"
         style="fill:#b9afbe;fill-opacity:1;fill-rule:nonzero;stroke:none"
         transform="matrix(0.13333333,0,0,-0.13333333,0,5333.3333)" />
      <path
         id="path41"
         d="m 21736.3,11273.6 c 84.7,-257.1 -55.1,-534.1 -312.1,-618.9 -257.1,-84.7 -534.1,55.1 -618.8,312.1 -84.8,257.1 55,534.1 312,618.9 257.1,84.7 534.2,-55.1 618.9,-312.1"
         style="fill:#ffffff;fill-opacity:1;fill-rule:nonzero;stroke:none"
         transform="matrix(0.13333333,0,0,-0.13333333,0,5333.3333)" />
      <path
         id="path42"
         d="m 21482.4,10859.9 -93.8,236.3 c 75.8,44.7 136.6,108.2 178.1,182.2 9,-16.8 16.6,-34.5 22.8,-53.2 44.6,-135.7 -2.4,-280 -107.1,-365.3"
         style="fill:#b9afbe;fill-opacity:1;fill-rule:nonzero;stroke:none"
         transform="matrix(0.13333333,0,0,-0.13333333,0,5333.3333)" />
      <path
         id="path43"
         d="m 21270.6,11455.7 c -34.8,0 -70.1,-5.4 -104.8,-16.9 -85.1,-28 -154.2,-87.5 -194.6,-167.6 -40.3,-79.9 -47.1,-170.9 -19,-256 28,-85.1 87.5,-154.2 167.5,-194.5 80.1,-40.4 171,-47.2 256.1,-19.1 175.7,57.9 271.5,247.9 213.7,423.6 -46.5,141 -178,230.5 -318.9,230.5 m -0.4,-980.5 c -99.5,0 -198.3,23.3 -289.7,69.4 -153.7,77.5 -268.1,210.3 -322,373.8 -53.9,163.6 -40.8,338.3 36.7,492.1 77.5,153.7 210.3,268.1 373.8,322 337.8,111.2 702.9,-73 814.1,-410.5 v -0.1 c 111.2,-337.6 -73,-702.8 -410.5,-814 -66.4,-21.9 -134.6,-32.7 -202.4,-32.7"
         style="fill:#371a45;fill-opacity:1;fill-rule:nonzero;stroke:none"
         transform="matrix(0.13333333,0,0,-0.13333333,0,5333.3333)" />
      <path
         id="path44"
         d="m 21166.1,9805.6 -2408.2,-955.4 c -285,-113.2 -610.9,27.4 -724.3,312.8 l -508.4,1281.5 c -99.1,249.8 -3.4,530.7 213.4,672.6 30.7,20.4 64,37.5 99.5,51.7 l 2407.8,955.4 c 285.3,113.3 611.3,-27.4 724.3,-312.9 l 402.9,-1014.9 105.8,-266.5 c 113.3,-285.3 -27.8,-611.1 -312.8,-724.3"
         style="fill:#ffffff;fill-opacity:1;fill-rule:nonzero;stroke:none"
         transform="matrix(0.13333333,0,0,-0.13333333,0,5333.3333)" />
      <path
         id="path45"
         d="m 19166,9189.5 c -58.4,0 -116.9,12 -172.4,36 -106.6,46.1 -188.6,130.3 -231,237.2 l -432.9,1091.1 c 97.2,-132.7 198.5,-244.9 308.7,-335 3.8,-11.9 8.1,-23.7 12.7,-35.5 87.2,-223.5 280.9,-366.5 470.6,-366.5 44.7,0 89.2,7.9 132,24.6 l 188,73.3 c 26.7,10.4 49.6,26.5 67.8,46.4 233.3,17 502.3,83.1 819.3,203 465.7,176.1 762.2,361 948.7,534.2 l 85.2,-214.6 c 42.4,-106.8 40.4,-224.4 -5.6,-331 -33.4,-77.2 -86.8,-141.5 -154.4,-187.3 l -1878.3,-745.5 c -51.2,-20.3 -104.8,-30.4 -158.4,-30.4"
         style="fill:#b9afbe;fill-opacity:1;fill-rule:nonzero;stroke:none"
         transform="matrix(0.13333333,0,0,-0.13333333,0,5333.3333)" />
      <path
         id="path46"
         d="m 20450.5,12038.6 c -53.6,0 -107.2,-10.2 -158.4,-30.4 l -2408,-955.6 c -106.9,-42.3 -191.1,-124.4 -237.1,-231 -46,-106.5 -48,-224 -5.6,-331 L 18150,9208.9 c 88,-221.8 340.3,-330.7 562,-242.6 l 2408,955.4 c 106.8,42.5 191.1,124.5 237.1,231 46,106.6 48,224.2 5.6,331 l -508.6,1281.7 c -42.4,106.9 -124.5,191.1 -231,237.1 -55.6,24.1 -114.1,36.1 -172.6,36.1 M 18758.1,8850.1 h 0.5 -0.5 m -204.9,-164.4 c -271.9,0 -529.4,163.4 -635.6,431.1 l -508.6,1281.6 c -67,169 -64,354.5 8.5,522.3 72.5,167.9 205.5,297.3 374.4,364.3 l 2408,955.5 c 168.9,67.1 354.5,64.1 522.3,-8.4 167.9,-72.5 297.2,-205.5 364.3,-374.5 l 508.6,-1281.7 c 67,-168.9 64,-354.4 -8.5,-522.3 -72.5,-167.9 -205.5,-297.2 -374.4,-364.2 l -2408,-955.6 c -82.4,-32.6 -167.3,-48.1 -251,-48.1"
         style="fill:#371a45;fill-opacity:1;fill-rule:nonzero;stroke:none"
         transform="matrix(0.13333333,0,0,-0.13333333,0,5333.3333)" />
      <path
         id="path47"
         d="m 21259,9853.5 c -28.6,-18.9 -59.5,-34.8 -92.9,-47.9 l -2408.2,-955.4 c -208.9,-82.8 -439.6,-29.7 -592.7,117.5 -55.7,53.4 -101.1,119.2 -131.2,195.4 l -226.1,569.2 -74.6,187.8 -208.1,524.4 c -113.3,285.4 27.9,611.1 312.9,724.3 l 520.4,206.3 c -221.9,-140.4 -320.7,-424.2 -220.7,-676.7 l 274.5,-692.3 234,-589.6 c 113.2,-285 439.3,-426 724.3,-312.8 l 1888.4,749.8"
         style="fill:#ffffff;fill-opacity:1;fill-rule:nonzero;stroke:none"
         transform="matrix(0.13333333,0,0,-0.13333333,0,5333.3333)" />
      <path
         id="path48"
         d="m 18553.5,8935.8 c -58.4,0 -117,12 -172.5,36 -106.5,46.1 -188.6,130.3 -230.9,237.2 l -61.6,155.2 c 26.4,13 52.8,26.3 79.4,40 l 0.1,0.1 c 0,0.1 0,0.1 0,0.1 0,0 3.7,9.1 9.2,25.6 17.9,52.9 55,180.7 51.9,321.2 43.2,19.6 79.6,54.9 110.2,100.5 l 190.9,-481.1 c 60.3,-152.2 171.3,-275.3 315.5,-351.3 l -133.9,-53.1 c -51.1,-20.3 -104.7,-30.4 -158.3,-30.4"
         style="fill:#b9afbe;fill-opacity:1;fill-rule:nonzero;stroke:none"
         transform="matrix(0.13333333,0,0,-0.13333333,0,5333.3333)" />
      <path
         id="path49"
         d="m 18002.5,11099.7 -118.3,-47 c -106.9,-42.4 -191.1,-124.5 -237.2,-231.1 -46,-106.5 -48,-224 -5.5,-330.9 L 18150.1,9209 c 42.3,-106.9 124.4,-191.1 230.9,-237.2 106.5,-46 223.9,-48 330.8,-5.6 l 133.9,53.1 c -144.2,76 -255.2,199.1 -315.5,351.3 l -508.5,1281.6 c -58.4,147.1 -62.1,304.3 -19.2,447.5 m 551,-2414.1 c -92.1,0 -184.2,18.9 -271.6,56.7 -167.9,72.5 -297.3,205.6 -364.2,374.6 l -508.6,1281.6 c -67.1,168.8 -64.1,354.4 8.4,522.2 72.5,167.9 205.5,297.3 374.4,364.4 l 520.3,206.4 113,-221.8 c -175.8,-111.4 -247.7,-332.3 -171.2,-525.3 l 508.6,-1281.7 c 42.4,-106.9 124.4,-191.1 231,-237.2 106.4,-46 223.9,-48 330.8,-5.6 l 1888.6,749.6 114.1,-221 c -36.3,-23.6 -75.2,-43.5 -115.6,-59.3 l -2407.4,-955.3 c -81,-32.2 -165.8,-48.3 -250.6,-48.3"
         style="fill:#371a45;fill-opacity:1;fill-rule:nonzero;stroke:none"
         transform="matrix(0.13333333,0,0,-0.13333333,0,5333.3333)" />
      <path
         id="path50"
         d="m 19345.7,10423.8 c 18.6,-47.5 101.4,-457 101.4,-457 0,0 -121.5,-47.3 -270.6,-105.5 -186.4,-72.7 -412.7,61.3 -505.5,299.2 -92.9,238 -17.1,489.9 169.2,562.6 125.8,49.1 270.6,105.6 270.6,105.6 0,0 204.7,-327.5 234.9,-404.9"
         style="fill:#22a7f0;fill-opacity:1;fill-rule:nonzero;stroke:none"
         transform="matrix(0.13333333,0,0,-0.13333333,0,5333.3333)" />
      <path
         id="path51"
         d="m 19119.6,9966.4 c -128.5,0 -264.6,107 -328.8,271.4 -38.8,99.6 -45.3,204.1 -18.1,294.4 25.2,83.7 76.6,144.4 144.8,171 l 86.3,33.7 c -55.4,-100.7 -68.6,-236.2 -29,-371.6 4.8,-16.4 10.4,-32.8 16.8,-49.2 58.9,-151.1 171.8,-260.3 294,-301.3 l -86.4,-33.6 c -25.7,-10.1 -52.5,-14.8 -79.6,-14.8"
         style="fill:#2976b4;fill-opacity:1;fill-rule:nonzero;stroke:none"
         transform="matrix(0.13333333,0,0,-0.13333333,0,5333.3333)" />
      <path
         id="path52"
         d="m 19117.4,10779.1 c -3.7,0 -7.4,-0.7 -11,-2.1 l -188.9,-73.8 c -68.2,-26.6 -119.6,-87.3 -144.8,-171 -27.2,-90.3 -20.7,-194.8 18.1,-294.4 77.7,-199.1 261,-314.1 408.4,-256.6 l 188,73.2 c 13.8,5.4 21.6,19.8 18.7,34.2 -63.1,304.6 -77.7,351.7 -80.1,358.1 -13.9,35.5 -82.2,154.2 -182.6,317.9 -5.7,9.2 -15.5,14.5 -25.8,14.5 m 4.3,-962.3 c -189.7,0 -383.4,143 -470.6,366.5 -51,130.6 -58.8,269.9 -22,392.1 38.7,128.8 121.8,223.8 233.9,267.6 l 188.9,73.7 c 81.2,31.6 173.5,0.8 219.1,-73.6 111.3,-181.3 176.8,-296.4 194.6,-342 v -0.1 c 4.8,-12 17.2,-44.1 87.1,-382.1 17.8,-86.3 -28.9,-172.2 -111,-204.2 l -188,-73.3 c -42.8,-16.7 -87.3,-24.6 -132,-24.6"
         style="fill:#371a45;fill-opacity:1;fill-rule:nonzero;stroke:none"
         transform="matrix(0.13333333,0,0,-0.13333333,0,5333.3333)" />
      <path
         id="path53"
         d="m 19666.4,10579.4 c 92.8,-238 17,-489.9 -169.3,-562.6 -186.3,-72.7 -412.7,61.3 -505.5,299.3 -92.9,238 -17.1,489.9 169.2,562.6 186.4,72.7 412.7,-61.3 505.6,-299.3"
         style="fill:#22a7f0;fill-opacity:1;fill-rule:nonzero;stroke:none"
         transform="matrix(0.13333333,0,0,-0.13333333,0,5333.3333)" />
      <path
         id="path54"
         d="m 19285.6,10014.8 c -122.2,41 -235.1,150.2 -294,301.3 -6.4,16.4 -12,32.8 -16.8,49.2 4.8,-16.4 10.4,-32.8 16.8,-49.2 58.9,-151.1 171.8,-260.3 294,-301.3 v 0"
         style="fill:#2e568d;fill-opacity:1;fill-rule:nonzero;stroke:none"
         transform="matrix(0.13333333,0,0,-0.13333333,0,5333.3333)" />
      <path
         id="path55"
         d="m 19391.1,9997.1 c -35.3,0 -70.8,6.1 -105.5,17.7 v 0 c 34.7,-11.6 70.2,-17.7 105.5,-17.7 v 0 m 83.3,12 c 7.6,2.2 15.2,4.8 22.7,7.7 0.3,0.2 0.7,0.3 1,0.4 -0.3,-0.1 -0.7,-0.2 -1,-0.4 -7.5,-2.9 -15.1,-5.5 -22.7,-7.7 m 24.1,8.3 c 0.2,0.1 0.4,0.1 0.6,0.2 -0.2,-0.1 -0.4,-0.1 -0.6,-0.2 m 1,0.4 c 0.2,0.1 0.4,0.2 0.6,0.2 -0.2,0 -0.4,-0.1 -0.6,-0.2 m 1,0.4 c 0.2,0.1 0.4,0.1 0.5,0.2 -0.1,-0.1 -0.3,-0.1 -0.5,-0.2 m 2.6,1.1 c 0.1,0 0.2,0 0.3,0.1 -0.1,-0.1 -0.2,-0.1 -0.3,-0.1 m 0.9,0.4 c 0.1,0 0.2,0 0.3,0.1 -0.1,-0.1 -0.2,-0.1 -0.3,-0.1 m 1,0.4 c 0.1,0 0.1,0 0.2,0 -0.1,0 -0.1,0 -0.2,0"
         style="fill:#371a45;fill-opacity:1;fill-rule:nonzero;stroke:none"
         transform="matrix(0.13333333,0,0,-0.13333333,0,5333.3333)" />
      <path
         id="path56"
         d="m 19391.1,9997.1 c -35.3,0 -70.8,6.1 -105.5,17.7 -122.2,41 -235.1,150.2 -294,301.3 -6.4,16.4 -12,32.8 -16.8,49.2 -29.6,101.2 -29.5,202.5 -4.4,289.2 -5.8,-20.1 -10.2,-41 -13.2,-62.5 17.8,31.1 39.6,58.8 65.3,81.9 5.2,-19.3 11.6,-38.6 19.1,-57.8 75.7,-194.1 240.3,-319 399.5,-319 35.9,0 71.6,6.3 106,19.8 33.1,12.9 62.7,31.6 88.4,54.8 20.6,-74.8 25,-149.5 15.3,-218.1 29,50.8 47.2,110.7 53,175.3 -12.3,-140.7 -83.3,-259.7 -198.6,-308.8 -0.1,0 -0.1,0 -0.2,0 -0.2,-0.1 -0.4,-0.2 -0.7,-0.3 -0.1,-0.1 -0.2,-0.1 -0.3,-0.1 -0.2,-0.1 -0.4,-0.2 -0.6,-0.3 -0.1,-0.1 -0.2,-0.1 -0.3,-0.1 -0.7,-0.3 -1.4,-0.6 -2.1,-0.9 -0.1,-0.1 -0.3,-0.1 -0.5,-0.2 -0.1,-0.1 -0.3,-0.1 -0.4,-0.2 -0.2,0 -0.4,-0.1 -0.6,-0.2 -0.1,-0.1 -0.3,-0.1 -0.4,-0.2 -0.2,-0.1 -0.4,-0.1 -0.6,-0.2 -0.2,-0.1 -0.3,-0.1 -0.4,-0.2 -0.3,-0.1 -0.7,-0.2 -1,-0.4 -7.5,-2.9 -15.1,-5.5 -22.7,-7.7 -27.3,-8.1 -55.2,-12 -83.3,-12"
         style="fill:#2976b4;fill-opacity:1;fill-rule:nonzero;stroke:none"
         transform="matrix(0.13333333,0,0,-0.13333333,0,5333.3333)" />
      <path
         id="path57"
         d="m 19676.2,10552.3 c 0,0 0,0.1 -0.1,0.2 0,-0.1 0.1,-0.2 0.1,-0.2 m -0.5,1.5 c -0.4,1.1 -0.8,2.2 -1.1,3.2 0.3,-1 0.7,-2.1 1.1,-3.2 m -1.1,3.3 c -2.6,7.4 -5.3,14.9 -8.2,22.3 -75.8,194.2 -240.3,319.1 -399.6,319.1 -14.8,0 -29.5,-1.1 -44.2,-3.3 v 0 c 14.7,2.2 29.4,3.3 44.2,3.3 159.3,0 323.8,-124.9 399.6,-319.1 2.9,-7.4 5.6,-14.9 8.2,-22.3"
         style="fill:#ffffff;fill-opacity:1;fill-rule:nonzero;stroke:none"
         transform="matrix(0.13333333,0,0,-0.13333333,0,5333.3333)" />
      <path
         id="path58"
         d="m 19150.3,10874.4 c 0.1,0 0.1,0 0.2,0 -0.1,0 -0.1,0 -0.2,0 m 1.2,0.5 c 0.1,0 0.2,0.1 0.4,0.1 -0.2,0 -0.3,-0.1 -0.4,-0.1 m 1.2,0.5 c 0.1,0 0.2,0.1 0.4,0.1 -0.2,0 -0.3,-0.1 -0.4,-0.1 m 1.3,0.5 c 0.1,0.1 0.2,0.1 0.3,0.2 -0.1,-0.1 -0.2,-0.1 -0.3,-0.2 m 1.5,0.7 c 0.1,0 0.3,0.1 0.4,0.1 -0.1,0 -0.3,-0.1 -0.4,-0.1 m 1.2,0.4 c 0.1,0.1 0.3,0.2 0.5,0.3 -0.2,-0.1 -0.4,-0.2 -0.5,-0.3 m 1.2,0.5 c 0.2,0.1 0.3,0.2 0.5,0.2 -0.2,0 -0.3,-0.1 -0.5,-0.2 m 1.3,0.5 c 0.1,0.1 0.3,0.2 0.4,0.2 -0.1,0 -0.3,-0.1 -0.4,-0.2 m 1.6,0.7 c 20.2,7.9 40.9,13.3 61.8,16.5 v 0 c -20.9,-3.2 -41.6,-8.6 -61.8,-16.5"
         style="fill:#afa3b5;fill-opacity:1;fill-rule:nonzero;stroke:none"
         transform="matrix(0.13333333,0,0,-0.13333333,0,5333.3333)" />
      <path
         id="path59"
         d="m 19703.8,10328.9 c 3.5,39.8 2.3,81.2 -3.8,123.4 -17.7,-30.6 -39.3,-57.8 -64.5,-80.6 -5.3,19.3 -11.7,38.5 -19.1,57.7 -75.8,194.1 -240.3,319.1 -399.6,319.1 -35.9,0 -71.6,-6.4 -106,-19.8 -33.1,-12.9 -62.6,-31.6 -88.3,-54.8 -6.4,23.2 -11.2,46.4 -14.6,69.4 -15.7,-27.2 -28.2,-57 -37.5,-88.8 28.8,100.2 90.9,181 179.9,219.9 0.1,0 0.1,0 0.2,0 0.3,0.2 0.6,0.3 1,0.5 0.1,0 0.2,0.1 0.4,0.1 0.2,0.1 0.5,0.3 0.8,0.4 0.1,0 0.2,0.1 0.4,0.1 0.3,0.2 0.6,0.3 0.9,0.4 0.1,0.1 0.2,0.1 0.3,0.2 0.4,0.1 0.8,0.3 1.2,0.5 0.1,0 0.3,0.1 0.4,0.1 0.3,0.1 0.5,0.2 0.8,0.3 0.1,0.1 0.3,0.2 0.5,0.3 0.2,0.1 0.5,0.1 0.7,0.2 0.2,0.1 0.3,0.2 0.5,0.2 0.3,0.1 0.5,0.2 0.8,0.3 0.1,0.1 0.3,0.2 0.4,0.2 0.4,0.2 0.8,0.3 1.2,0.5 v 0 c 20.2,7.9 40.9,13.3 61.8,16.5 14.7,2.2 29.4,3.3 44.2,3.3 159.3,0 323.8,-124.9 399.6,-319.1 2.9,-7.4 5.6,-14.9 8.2,-22.3 v -0.1 c 0.3,-1 0.7,-2.1 1.1,-3.2 0.1,-0.4 0.3,-0.9 0.4,-1.3 0.1,-0.1 0.1,-0.2 0.1,-0.2 25.5,-75.9 34,-152.4 27.6,-223.4"
         style="fill:#a7dcf9;fill-opacity:1;fill-rule:nonzero;stroke:none"
         transform="matrix(0.13333333,0,0,-0.13333333,0,5333.3333)" />
      <path
         id="path60"
         d="m 19650.8,10153.6 c 9.7,68.6 5.3,143.3 -15.3,218.1 25.2,22.8 46.8,50 64.5,80.6 6.1,-42.2 7.3,-83.6 3.8,-123.4 -5.8,-64.6 -24,-124.5 -53,-175.3 m -693.6,438.4 c 3,21.5 7.4,42.4 13.2,62.5 9.3,31.8 21.8,61.6 37.5,88.8 3.4,-23 8.2,-46.2 14.6,-69.4 -25.7,-23.1 -47.5,-50.8 -65.3,-81.9"
         style="fill:#a9c8e1;fill-opacity:1;fill-rule:nonzero;stroke:none"
         transform="matrix(0.13333333,0,0,-0.13333333,0,5333.3333)" />
      <path
         id="path61"
         d="m 19267.8,10823.7 c -27.2,0 -54,-4.8 -79.7,-14.9 -147.5,-57.5 -204.3,-266.3 -126.7,-465.4 77.7,-199.1 261,-314.2 408.4,-256.7 68.2,26.6 119.7,87.4 144.8,171.1 27.2,90.2 20.8,194.8 -18.1,294.3 -64.2,164.4 -200.2,271.6 -328.7,271.6 z m 124.5,-901.4 c -189.7,0 -383.4,143.1 -470.6,366.6 -107.7,276.1 -12.7,572.1 211.9,659.7 224.6,87.6 494.9,-65.8 602.6,-342 51,-130.6 58.8,-269.8 22.1,-392 -38.8,-128.9 -121.9,-223.9 -234,-267.6 -42.8,-16.7 -87.3,-24.7 -132,-24.7"
         style="fill:#371a45;fill-opacity:1;fill-rule:nonzero;stroke:none"
         transform="matrix(0.13333333,0,0,-0.13333333,0,5333.3333)" />
      <path
         id="path62"
         d="m 20413.8,9392.8 c -50.8,0 -98.6,31.3 -117.2,81.7 l -304.5,823.4 c -31.6,85.7 -18.3,180.8 35.6,254.4 l 215.6,294.5 c 4.3,5.9 5.3,13.6 2.6,20.3 l -427.1,1087.2 c -25.2,64.3 6.4,136.8 70.7,162.1 64.2,25.1 136.8,-6.4 162.1,-70.7 l 427,-1087.2 c 34.1,-87 21.6,-183.9 -33.6,-259.3 l -215.6,-294.6 c -4.2,-5.8 -5.2,-13.3 -2.7,-20 l 304.4,-823.4 c 23.9,-64.7 -9.2,-136.6 -73.9,-160.6 -14.3,-5.2 -29,-7.8 -43.4,-7.8"
         style="fill:#371a45;fill-opacity:1;fill-rule:nonzero;stroke:none"
         transform="matrix(0.13333333,0,0,-0.13333333,0,5333.3333)" />
      <path
         id="path63"
         d="m 15720.9,9912.2 c 0,0 -167.7,-238.4 -100.6,-521.2 77.6,-327.1 306.5,-408.2 306.5,-408.2 0,0 968.8,-234 2241.1,421.4 0,0 254,633.8 -271.9,816.8 0,0 -1373.6,-579.6 -2175.1,-308.8"
         style="fill:#ffffff;fill-opacity:1;fill-rule:nonzero;stroke:none"
         transform="matrix(0.13333333,0,0,-0.13333333,0,5333.3333)" />
      <path
         id="path64"
         d="m 18168,9404.3 c 0.5,1.3 4,10.3 9.2,25.7 -5.5,-16.5 -9.2,-25.6 -9.2,-25.6 v 0"
         style="fill:#8c7b94;fill-opacity:1;fill-rule:nonzero;stroke:none"
         transform="matrix(0.13333333,0,0,-0.13333333,0,5333.3333)" />
      <path
         id="path65"
         d="m 16383.4,8942.3 c -288.4,0 -456.7,40.7 -456.7,40.7 0,0 -228.7,81.1 -306.2,407.8 -40.3,169.4 4.1,323 45.7,419.1 0.5,-5.5 1.9,-10.9 3.2,-16.4 0.8,-3.2 1.6,-6.5 2.4,-9.7 58.5,-234 261.4,-404.3 501.6,-427 69.9,-6.6 157,-11.7 259.3,-11.7 403.5,0 1042.3,79.7 1784.3,462 0,0 2.7,6.4 6.3,18.2 22.2,-167.7 -25.2,-333.3 -46.1,-395.3 -5.2,-15.4 -8.7,-24.4 -9.2,-25.7 -742.2,-382.3 -1381.1,-462 -1784.6,-462"
         style="fill:#b9afbe;fill-opacity:1;fill-rule:nonzero;stroke:none"
         transform="matrix(0.13333333,0,0,-0.13333333,0,5333.3333)" />
      <path
         id="path66"
         d="m 15974,9130.8 c 105.9,-20.9 965,-165.9 2067.6,382.7 28.1,97.9 57.5,271.2 -0.9,398.2 -28.5,62 -76.1,109 -144.9,142.4 -267.3,-105.5 -1338.8,-497.7 -2095.7,-324.5 -29.6,-74.6 -57.3,-185.3 -29.3,-302.9 49.2,-207.7 171.6,-280.3 203.2,-295.9 z m 411.6,-344 c -297.7,0 -477.8,41.6 -495.1,45.8 l -15.3,4.5 c -114.5,40.6 -328.7,195.4 -405.3,518.2 -82.2,346.6 116,633.8 124.5,645.9 l 66.4,94.5 109.5,-37 c 736.3,-248.6 2052.5,299.2 2065.6,304.7 l 54.8,23.1 56.1,-19.5 c 176,-61.2 305.9,-174.7 375.7,-328.1 137.7,-302.3 4.6,-653.2 -11.1,-692.2 l -21.5,-53.5 -51.2,-26.5 C 17470.4,8871 16809,8786.8 16385.6,8786.8"
         style="fill:#371a45;fill-opacity:1;fill-rule:nonzero;stroke:none"
         transform="matrix(0.13333333,0,0,-0.13333333,0,5333.3333)" />
      <path
         id="path67"
         d="m 20280.8,6144.6 c -324.8,0 -688.8,83.2 -1061.5,324.3 -46.4,30.1 -59.6,92 -29.7,138.3 30.1,46.4 92.1,59.6 138.3,29.7 1077.8,-697.2 2071.3,69.3 2081.2,77.1 43.4,34.2 106.2,26.9 140.5,-16.5 34.2,-43.3 26.8,-106.2 -16.5,-140.4 -7.7,-6 -534.4,-412.5 -1252.3,-412.5"
         style="fill:#371a45;fill-opacity:1;fill-rule:nonzero;stroke:none"
         transform="matrix(0.13333333,0,0,-0.13333333,0,5333.3333)" />
      <path
         id="path68"
         d="m 17677.7,6170.2 c -352.1,0 -741,84.2 -1123.7,331.8 -46.4,30 -59.7,91.9 -29.7,138.2 30,46.4 91.9,59.6 138.3,29.7 1082.9,-700.6 2226.3,41.4 2237.6,49 46,30.5 108.1,17.9 138.7,-28.1 30.5,-46 17.9,-108.1 -28.1,-138.6 -8.5,-5.6 -588.6,-382 -1333.1,-382"
         style="fill:#371a45;fill-opacity:1;fill-rule:nonzero;stroke:none"
         transform="matrix(0.13333333,0,0,-0.13333333,0,5333.3333)" />
      <path
         id="path69"
         d="m 15492.8,8919.5 c -11.1,0 -22.3,1.9 -33.4,5.8 -10.9,3.8 -1095,381.5 -1575.3,14.7 -44,-33.5 -106.7,-25 -140.2,18.8 -33.5,43.9 -25.1,106.7 18.8,140.2 566.4,432.3 1714.9,32 1763.6,14.8 52,-18.5 79.2,-75.6 60.8,-127.7 -14.6,-41 -53.2,-66.6 -94.3,-66.6"
         style="fill:#371a45;fill-opacity:1;fill-rule:nonzero;stroke:none"
         transform="matrix(0.13333333,0,0,-0.13333333,0,5333.3333)" />
      <path
         id="path70"
         d="m 21491,15615.8 c -1425.6,0 -1669.6,1319 -1671.9,1332.7 -9.4,54.4 27.1,106.1 81.5,115.5 55.1,9.8 106.1,-27.1 115.6,-81.4 9,-51.2 231.7,-1224.4 1573.9,-1164.6 1.5,0.1 3,0.1 4.6,0.1 53.1,0 97.3,-41.8 99.8,-95.5 2.5,-55.2 -40.3,-101.9 -95.4,-104.4 -36.7,-1.6 -72.9,-2.4 -108.1,-2.4"
         style="fill:#371a45;fill-opacity:1;fill-rule:nonzero;stroke:none"
         transform="matrix(0.13333333,0,0,-0.13333333,0,5333.3333)" />
      <path
         id="path71"
         d="m 15752.3,11486.2 v 0 l -90.1,633.6 c 636.5,54.8 1266.3,231.7 1852.8,532.7 84.6,43.7 169,90.1 251.2,138.2 229.1,135.1 447.6,288.6 649.3,456.4 172.4,143.1 335.6,298.3 484.7,460.9 172.6,187.2 332.4,390.1 476,604.2 l 79.9,67.7 c 92.9,-98.8 202,-211.1 314,-332.6 -368.8,-670 -982.3,-1416.7 -1999.9,-1966.3 -717.6,-386.9 -1406.7,-551.8 -2017.9,-594.8"
         style="fill:#b9afbe;fill-opacity:1;fill-rule:nonzero;stroke:none"
         transform="matrix(0.13333333,0,0,-0.13333333,0,5333.3333)" />
      <path
         id="path72"
         d="m 15410.2,11474.3 c -144.2,0 -282.9,6.6 -415.4,17.8 -271.2,22.7 -536.3,79.5 -790.4,166.4 44.9,134.2 100.4,262.6 169.9,383 27,39.9 52.5,80.9 79.5,120.7 257.6,-40.5 518,-60.8 778.7,-60.8 143.3,0 286.7,6.1 429.7,18.4 l 90.1,-633.6 v 0 c -71.1,-5 -140.9,-8.2 -209.7,-10 -44.7,-1.2 -88.8,-1.9 -132.4,-1.9"
         style="fill:#b9afbe;fill-opacity:1;fill-rule:nonzero;stroke:none"
         transform="matrix(0.13333333,0,0,-0.13333333,0,5333.3333)" />
      <path
         id="path73"
         d="m 14204.4,11658.5 c -49.4,17 -98.4,35 -147,54.2 62.6,186.7 140.5,344.9 227.6,479.1 56.1,-10.8 112.4,-20.7 168.8,-29.6 -27,-39.8 -52.5,-80.8 -79.5,-120.7 -69.5,-120.4 -125,-248.8 -169.9,-383"
         style="fill:#371a45;fill-opacity:1;fill-rule:nonzero;stroke:none"
         transform="matrix(0.13333333,0,0,-0.13333333,0,5333.3333)" />
      <path
         id="path74"
         d="m 20057.9,17499.7 c 69.1,-806.8 -63,-1634.2 -412.1,-2403.8 -71.3,-156.9 -151.1,-311.1 -240.2,-462.1 -43.1,-73.7 -89.1,-146.7 -136.7,-219.4 -144.7,-218.3 -303.9,-420.8 -476,-607.5 -147.9,-161.3 -305.5,-310.5 -470.6,-447.6 -199.3,-165.6 -410.3,-313.2 -630.2,-442.9 -80.3,-47 -161.7,-91.7 -244,-134.2 -1508.5,-774.1 -3379.3,-732.9 -4893,270.6 -2230.1,1477.9 -2839.46,4483.7 -1361.9,6713.6 284.8,429.2 626.2,799.3 1008.1,1104.8 44.3,36.1 89.9,71.1 136.1,105.1 122.9,91.7 249.5,177 379.4,255.8 300.5,182.2 618.6,329.8 947.4,441.7 328.5,112.2 668.6,188.9 1013,228.5 109.4,12.7 219.3,21.8 329.9,26.9 165.6,7.6 331.5,7.2 498.2,-2.5 829.8,-45.8 1658.8,-306.2 2401.6,-798.7 1282.9,-850.1 2029.2,-2205.7 2151,-3628.3"
         style="fill:#ffffff;fill-opacity:1;fill-rule:nonzero;stroke:none"
         transform="matrix(0.13333333,0,0,-0.13333333,0,5333.3333)" />
      <path
         id="path75"
         d="m 15234.2,21919.7 c -75,0 -150.6,-1.7 -226.5,-5.1 -108.1,-5.1 -218.8,-14.1 -328.8,-26.9 -343.4,-39.5 -683.2,-116.2 -1010,-227.8 -330.2,-112.4 -647.9,-260.6 -944.5,-440.3 -129.1,-78.4 -256.4,-164.2 -378.3,-255.1 -48,-35.3 -93.6,-70.5 -135.5,-104.7 -387.7,-310.1 -725.9,-680.7 -1005.2,-1101.5 -1470.83,-2219.8 -861.8,-5222.4 1357.8,-6693.3 1454.5,-964.3 3323.7,-1067.6 4878.2,-269.7 82,42.4 163.9,87.4 243.3,133.9 221.5,130.6 432.9,279.2 628.2,441.5 166.9,138.5 324.7,288.6 469.2,446.1 172.7,187.5 332.4,391.2 474.5,605.7 52.3,79.8 96.9,151.3 136.3,218.7 87.1,147.7 167.7,302.7 239.5,460.8 339,747.4 481.1,1576 410.9,2396.4 -126.7,1479.8 -908.3,2798.3 -2144.5,3617.3 -714.8,474 -1542.7,749.3 -2394.3,796.3 -88.6,5.2 -178.9,7.7 -270.3,7.7 m -1.6,-9687.1 c -940.2,0 -1876.6,271.5 -2685.6,807.9 -2233.1,1479.9 -2845.87,4500.8 -1366.1,6734 281,423.4 621.2,796.2 1011.2,1108.2 42.3,34.4 88.2,69.9 136.6,105.4 122.5,91.4 250.6,177.8 380.5,256.6 298.4,180.9 618,329.9 950.2,443 328.8,112.3 670.6,189.4 1016.1,229.2 110.7,12.9 222,21.9 330.8,27 169.5,7.8 337.6,6.9 499.9,-2.5 856.7,-47.3 1689.7,-324.4 2408.8,-801.2 1243.7,-824 2030.1,-2150.5 2157.6,-3639.3 70.6,-825.4 -72.4,-1659.1 -413.5,-2411 -72.2,-159.1 -153.2,-315.1 -240.9,-463.6 -39.6,-67.8 -84.5,-139.7 -137,-220 -143.1,-215.8 -303.7,-420.9 -477.5,-609.4 -145.3,-158.4 -304.1,-309.4 -472.1,-448.8 -196.4,-163.3 -409,-312.8 -632,-444.3 -79.9,-46.8 -162.2,-92 -244.8,-134.6 -699.2,-358.9 -1462,-536.6 -2222.2,-536.6"
         style="fill:#371a45;fill-opacity:1;fill-rule:nonzero;stroke:none"
         transform="matrix(0.13333333,0,0,-0.13333333,0,5333.3333)" />
      <path
         id="path76"
         d="m 15232.5,12393.2 c -761.3,0 -1520,184.2 -2206.1,548.7 123.9,108.6 222.7,245.9 293.1,407.8 560.6,-379.8 1192.9,-620.7 1876.4,-710.5 191.8,-25.2 385.4,-37.6 579.4,-37.6 474.1,0 951.2,74.1 1414,217.4 -622.6,-284.7 -1290.6,-425.8 -1956.8,-425.8 m 543.3,461.4 c -183.2,0 -366,11.7 -546.9,35.5 -667.8,87.7 -1284.1,329 -1827.5,711.1 21.2,93 34,189.2 38.7,287.5 130.2,-42.2 261.4,-78.6 393.5,-109.2 610.4,-370.4 1287,-546.2 1967.2,-546.2 490.7,0 983.3,91.4 1454.3,267.3 971.2,362.4 1850.6,1083.6 2432.7,2101.2 -50.6,-151.2 -108.9,-299.9 -175,-445.5 -69.8,-153.9 -148.2,-304.7 -233.2,-448.8 -38.3,-65.4 -81.8,-135.1 -132.4,-212.4 -138.3,-208.8 -293.6,-407 -461.8,-589.5 -24.3,-26.4 -48.9,-52.6 -73.8,-78.5 -843.1,-631.3 -1847.3,-972.6 -2835.8,-972.5 m -5079.6,3016.7 c -40.8,152.1 -74,306.1 -99.4,461.5 62.9,-126.3 131.6,-250.2 205.9,-371.2 -37.5,-27.7 -73,-57.9 -106.5,-90.3"
         style="fill:#b9afbe;fill-opacity:1;fill-rule:nonzero;stroke:none"
         transform="matrix(0.13333333,0,0,-0.13333333,0,5333.3333)" />
      <path
         id="path77"
         d="m 15234.2,21821.3 c -73.5,0 -147.6,-1.7 -222,-5.1 -105.9,-4.9 -214.2,-13.8 -322,-26.3 -336.5,-38.7 -669.4,-113.8 -989.5,-223.2 -323.5,-110.1 -634.8,-255.2 -925.3,-431.3 -126.3,-76.7 -251,-160.8 -370.4,-249.8 -47.2,-34.8 -91.5,-69 -132.2,-102.1 -380.5,-304.3 -711.7,-667.4 -985.4,-1079.7 -1440.76,-2174.4 -844.1,-5115.8 1330.2,-6556.7 1424.7,-944.6 3255.9,-1045.9 4778.8,-264.2 80.4,41.4 160.7,85.6 238.5,131.2 216.8,127.8 423.8,273.4 615.1,432.3 163.5,135.7 318.1,282.8 459.5,436.9 169.4,183.8 325.8,383.4 465.1,593.6 51,77.9 94.7,148.1 133.3,214 85.5,145 164.5,296.9 234.8,451.8 332.1,732 471.3,1543.7 402.5,2347.3 -124.1,1449.6 -889.8,2741.3 -2100.8,3543.6 -700.2,464.3 -1511.2,734.1 -2345.3,780.1 -86.9,5.1 -175.4,7.6 -264.9,7.6 m -1.6,-9687.1 c -959.3,0 -1914.6,277 -2740,824.3 -2278.3,1509.8 -2903.53,4591.9 -1393.8,6870.4 286.7,431.9 633.8,812.3 1031.9,1130.6 42.7,34.9 90,71.4 139.6,107.9 124.6,92.9 255.2,181 387.8,261.5 304.5,184.6 630.7,336.6 969.6,452 335.3,114.5 684.1,193.2 1036.5,233.8 112.9,13.1 226.5,22.4 337.6,27.5 172.9,7.9 344.4,7 510.1,-2.5 873.9,-48.3 1723.8,-330.9 2457.6,-817.4 1268.8,-840.8 2071.1,-2194.1 2201.2,-3713 72.1,-842.2 -73.8,-1692.8 -421.9,-2460.1 -73.7,-162.3 -156.4,-321.4 -245.8,-472.9 -40.3,-68.9 -86,-142.2 -139.4,-223.9 -146.3,-220.7 -310.2,-429.8 -487.5,-622.2 -148.2,-161.5 -310.2,-315.6 -481.6,-457.9 -200.4,-166.6 -417.4,-319.2 -644.9,-453.3 -81.7,-47.8 -165.5,-94 -249.6,-137.3 -713.5,-366.2 -1491.8,-547.5 -2267.4,-547.5"
         style="fill:#371a45;fill-opacity:1;fill-rule:nonzero;stroke:none"
         transform="matrix(0.13333333,0,0,-0.13333333,0,5333.3333)" />
      <path
         id="path78"
         d="m 15234.2,21788.5 c -73,0 -146.6,-1.7 -220.5,-5.1 -105.1,-4.9 -212.7,-13.6 -319.8,-26.1 -334.1,-38.5 -664.7,-113 -982.6,-221.7 -321.3,-109.3 -630.4,-253.4 -918.8,-428.3 -125.6,-76.1 -249.3,-159.6 -367.9,-248.1 -47,-34.5 -90.8,-68.4 -131,-101.2 -378.1,-302.3 -707.1,-662.9 -978.8,-1072.4 -1430.81,-2159.3 -838.3,-5080.2 1320.9,-6511.1 1414.9,-938.1 3233.3,-1038.6 4745.7,-262.4 79.8,41.1 159.6,85 237,130.3 215.1,126.9 420.7,271.4 610.6,429.2 162.4,134.8 315.9,280.8 456.4,434 168.2,182.5 323.5,380.7 461.8,589.5 50.6,77.3 94.1,147 132.4,212.4 85,144.1 163.4,294.9 233.2,448.8 329.8,726.9 468,1532.9 399.7,2330.9 -123.2,1439.6 -883.6,2722.3 -2086.2,3519.1 -695.4,461.1 -1500.8,729 -2329,774.7 -86.3,5 -174.3,7.5 -263.1,7.5 m -1.7,-9687.1 c -965.5,0 -1927.3,278.9 -2758.1,829.7 -2293.3,1519.9 -2922.7,4622.3 -1402.9,6915.9 288.5,434.8 638,817.7 1038.7,1138.2 42.9,35 90.6,71.9 140.7,108.7 125.2,93.3 256.7,182 390.2,263 306.5,185.8 634.9,338.9 976,455.1 337.5,115.3 688.6,194.5 1043.3,235.3 113.7,13.2 228,22.6 339.8,27.7 174.1,7.9 346.8,7.1 513.6,-2.6 879.6,-48.5 1735.2,-333.1 2473.8,-822.8 1277.2,-846.3 2084.9,-2208.5 2215.8,-3737.5 72.5,-847.7 -74.3,-1704.1 -424.7,-2476.5 -74.2,-163.3 -157.4,-323.4 -247.4,-476 -40.6,-69.3 -86.5,-143 -140.3,-225.2 -147.4,-222.2 -312.3,-432.8 -490.8,-626.4 -149.1,-162.6 -312.3,-317.8 -484.7,-460.9 -201.7,-167.8 -420.2,-321.3 -649.3,-456.4 -82.2,-48.1 -166.6,-94.5 -251.2,-138.2 -718.3,-368.7 -1501.6,-551.1 -2282.5,-551.1"
         style="fill:#371a45;fill-opacity:1;fill-rule:nonzero;stroke:none"
         transform="matrix(0.13333333,0,0,-0.13333333,0,5333.3333)" />
      <path
         id="path79"
         d="m 20004.4,16259.6 c -1281.2,-3216.3 -5283.3,-4156.5 -7334.5,-1408.7 -1395.5,1869.4 -642.6,4679 1238.7,5904.4 1369.2,891.8 3096.1,1163.5 5061.2,-583.2 0,0 750.5,-907.6 913.7,-1733.1 163.2,-825.6 182.6,-1656 182.6,-1656 l -61.7,-523.4"
         style="fill:#371a45;fill-opacity:1;fill-rule:nonzero;stroke:none"
         transform="matrix(0.13333333,0,0,-0.13333333,0,5333.3333)" />
      <path
         id="path80"
         d="m 12670,14850.9 c 2051.1,-2747.7 6053.3,-1807.4 7334.5,1408.6 l 12.4,106.1 c -2302.5,-2181.6 -5929.5,-2329.6 -8055,410 51.3,-681.5 277.5,-1347.7 708.1,-1924.7"
         style="fill:#220f2d;fill-opacity:1;fill-rule:nonzero;stroke:none"
         transform="matrix(0.13333333,0,0,-0.13333333,0,5333.3333)" />
      <path
         id="path81"
         d="m 15511.5,21799.6 c -592.8,-92.9 -1194.6,-336.2 -1788.7,-723.1 -1062.8,-692.3 -1836.8,-1889.1 -2070.3,-3201.6 -213.3,-1198.7 39,-2354.2 710.4,-3253.5 733.8,-982.8 1724.8,-1581.5 2866,-1731.3 1194.5,-156.9 2461.8,211.1 3477.7,1009.9 166.2,181 319.8,377.5 456.8,584.3 50.9,77.7 94.5,147.7 133,213.4 85.3,144.5 164,296.1 234.2,450.5 331.1,729.9 469.9,1539.4 401.3,2340.7 -123.8,1445.5 -887.3,2733.5 -2094.8,3533.6 -694.7,460.6 -1498.5,729.1 -2325.6,777.1 m 263.8,-9198 c -194,0 -387.6,12.4 -579.4,37.6 -1210.4,158.9 -2260.1,792.1 -3035.7,1830.9 -713.7,955.9 -982.5,2180.8 -756.8,3449.1 245.6,1380.1 1061,2639.6 2181.3,3369.3 628.9,409.6 1268.7,666.4 1901.5,763.3 l 13,2 13.1,-0.8 c 876.6,-48.4 1728.8,-331.8 2464.6,-819.6 1272.2,-843 2076.7,-2200 2207.1,-3723 72.3,-844.4 -74,-1697.4 -423,-2466.7 -73.9,-162.7 -156.9,-322.3 -246.5,-474.2 -40.4,-69.1 -86.2,-142.5 -139.7,-224.4 -146.8,-221.3 -311.1,-431 -488.9,-624 l -14.6,-13.5 c -908.2,-717 -2010.1,-1106 -3096,-1106"
         style="fill:#371a45;fill-opacity:1;fill-rule:nonzero;stroke:none"
         transform="matrix(0.13333333,0,0,-0.13333333,0,5333.3333)" />
      <path
         id="path82"
         d="m 10758,13848.4 c 475.3,-828.9 1363.2,-1243 1983.2,-925 619.9,318.1 737.2,1247.9 261.9,2076.8 -475.3,828.9 -1363.2,1243.1 -1983.2,925 -619.9,-318 -737.2,-1247.8 -261.9,-2076.8"
         style="fill:#ffffff;fill-opacity:1;fill-rule:nonzero;stroke:none"
         transform="matrix(0.13333333,0,0,-0.13333333,0,5333.3333)" />
      <path
         id="path83"
         d="m 10884.6,13921 c 436.3,-760.9 1239.4,-1150.4 1789.9,-867.7 203.1,104.2 349.2,290.2 422.7,537.9 116.3,392.8 33.8,892.4 -220.7,1336.4 -436.4,761 -1239.4,1150.2 -1789.9,867.8 -203.1,-104.2 -349.2,-290.2 -422.6,-538 -116.4,-392.8 -33.9,-892.4 220.6,-1336.4 m 1402.9,-1249 c -598.5,0 -1263.3,418.8 -1656.1,1103.8 -297.9,519.5 -388,1089.8 -247.3,1564.6 96.6,326.1 293.4,573.2 569.2,714.7 687.3,352.5 1663.6,-88 2176.4,-982.3 297.9,-519.4 388,-1089.7 247.4,-1564.5 -96.7,-326.1 -293.6,-573.3 -569.3,-714.7 -160.8,-82.5 -337.5,-121.6 -520.3,-121.6"
         style="fill:#371a45;fill-opacity:1;fill-rule:nonzero;stroke:none"
         transform="matrix(0.13333333,0,0,-0.13333333,0,5333.3333)" />
      <path
         id="path84"
         d="m 11030.6,13201.8 c 552.4,-498.7 1255.2,-502.1 1569.9,-7.5 314.7,494.5 122.1,1299.7 -430.3,1798.4 -552.3,498.7 -1255.2,502 -1569.9,7.5 -314.6,-494.5 -122,-1299.7 430.3,-1798.4"
         style="fill:#ffffff;fill-opacity:1;fill-rule:nonzero;stroke:none"
         transform="matrix(0.13333333,0,0,-0.13333333,0,5333.3333)" />
      <path
         id="path85"
         d="m 11293.3,15353.8 c -42,0 -83.6,-2.8 -124.6,-8.3 -236.7,-32.1 -428.8,-154.4 -555.5,-353.5 -310.4,-487.7 -118.5,-1285.8 427.6,-1778.9 305.1,-275.5 666.1,-408.2 991.4,-364.1 236.7,32.1 428.7,154.3 555.4,353.4 310.4,487.8 118.6,1285.8 -427.5,1778.9 -266.7,240.8 -576.2,372.5 -866.8,372.5 m 614.5,-2543.6 c -298.3,0 -615.1,134.4 -887.4,380.3 -556.7,502.6 -751,1318.1 -433,1817.9 131.7,206.9 331.3,334 577.2,367.3 333.8,45 704.1,-90.2 1015.9,-371.7 556.7,-502.7 750.9,-1318.2 432.9,-1818 -131.7,-206.9 -331.3,-333.9 -577.1,-367.3 -42.4,-5.7 -85.3,-8.5 -128.5,-8.5"
         style="fill:#371a45;fill-opacity:1;fill-rule:nonzero;stroke:none"
         transform="matrix(0.13333333,0,0,-0.13333333,0,5333.3333)" />
      <path
         id="path86"
         d="m 11987.1,12925.1 c -2.2,0 -4.4,0 -6.5,0 -594.4,3.8 -1222,524.5 -1402,1162.9 -10.6,38 -19.8,75.8 -26.7,112.7 277.8,-294.6 651.2,-487.8 1012.4,-489.9 2.1,0 4.2,0 6.3,0 555,0 882.5,453.4 770.2,1036.5 75.9,-80.5 144.7,-168.4 204.1,-262.1 230.6,-437.7 262.2,-937.8 42.7,-1282.8 -18.5,-29.1 -38.5,-56.7 -59.8,-82.5 -135.3,-123.1 -320,-194.8 -540.7,-194.8"
         style="fill:#b9afbe;fill-opacity:1;fill-rule:nonzero;stroke:none"
         transform="matrix(0.13333333,0,0,-0.13333333,0,5333.3333)" />
      <path
         id="path87"
         d="m 12690.7,13337.5 c 89.3,223.5 97.6,488.5 34.9,753.9 1.7,-5.8 3.3,-11.6 5,-17.4 79.1,-280.6 58.5,-537.2 -39.9,-736.5"
         style="fill:#b9afbe;fill-opacity:1;fill-rule:nonzero;stroke:none"
         transform="matrix(0.13333333,0,0,-0.13333333,0,5333.3333)" />
      <path
         id="path88"
         d="m 12527.8,13119.9 c 21.3,25.8 41.3,53.4 59.8,82.5 219.5,345 187.9,845.1 -42.7,1282.8 77.9,-122.8 139.8,-255.4 180.7,-393.8 62.7,-265.4 54.4,-530.4 -34.9,-753.9 -41.2,-83.4 -96,-156.7 -162.9,-217.6"
         style="fill:#371a45;fill-opacity:1;fill-rule:nonzero;stroke:none"
         transform="matrix(0.13333333,0,0,-0.13333333,0,5333.3333)" />
      <path
         id="path89"
         d="m 11197.8,15294.8 c -95.8,0 -186.9,-19.8 -269.4,-61.3 -138.7,-69.7 -239.2,-198 -290.9,-371 -93.5,-313.1 -19.1,-725 198.8,-1101.7 356.5,-616.2 980.4,-949.6 1391.3,-743.1 138.6,69.8 239.2,198 290.9,371 93.5,313.2 19.1,725.1 -198.8,1101.8 -285,492.5 -740.8,804.3 -1121.9,804.3 z m 760.6,-2591.3 c -473.2,-0.1 -1006.5,352.3 -1341.1,930.6 -252.2,435.9 -335.3,922.1 -222.2,1300.8 72,241.4 217.1,422.9 419.6,524.7 537,270.2 1294.3,-99.8 1724,-842.4 252.2,-435.9 335.2,-922.2 222.2,-1300.9 -72.1,-241.4 -217.2,-422.8 -419.6,-524.6 -118.8,-59.8 -248.5,-88.2 -382.9,-88.2"
         style="fill:#371a45;fill-opacity:1;fill-rule:nonzero;stroke:none"
         transform="matrix(0.13333333,0,0,-0.13333333,0,5333.3333)" />
      <path
         id="path90"
         d="m 18971.3,17405.3 c 0,0 -78.8,430.7 -540.1,1165.5 -151.9,241.6 -334.6,508.9 -667.3,826.2 -251.5,239.8 -562.1,409.9 -900.4,489.7 -1.7,0.4 -3.4,0.8 -5,1.2 -251.1,59 -507,83.9 -760.3,83.9 -1368.5,0 -2657.6,-727.2 -2657.6,-727.2 -108.7,38.8 803.8,1381 2529.2,1573.3 78,8.7 154.9,12.9 230.9,12.9 822.1,0 1517,-485.3 1973.9,-919 165.6,-157 299.8,-307.4 397.5,-425.5 l 0.7,-0.7 c 10.6,-13.8 20.9,-27.7 31,-41.9 43.9,-61.4 84.7,-122.5 122.2,-183.1 378.2,-615.9 419.4,-1204.6 245.3,-1855.3"
         style="fill:#9b8da2;fill-opacity:1;fill-rule:nonzero;stroke:none"
         transform="matrix(0.13333333,0,0,-0.13333333,0,5333.3333)" />
      <path
         id="path91"
         d="m 13282.3,15881 c -290,0 -571.9,220.9 -675,555.1 -122.8,398.2 54.6,806.4 396.3,911.9 54.9,16.9 110.7,25 166.2,25 289.9,0 571.8,-220.9 674.9,-555.1 122.9,-398.2 -54.5,-806.5 -396.3,-911.9 -54.8,-16.9 -110.6,-25 -166.1,-25"
         style="fill:#9b8da2;fill-opacity:1;fill-rule:nonzero;stroke:none"
         transform="matrix(0.13333333,0,0,-0.13333333,0,5333.3333)" />
      <path
         id="path92"
         d="m 13886.7,15203.5 c -168.6,80 -334.8,170.4 -496.9,271.1 34,74.2 95.6,129.8 174,146.9 16.5,3.6 33,5.3 49.4,5.3 127,0 245.7,-103.9 278.2,-252.8 12.9,-59.4 10.4,-118.1 -4.7,-170.5"
         style="fill:#9b8da2;fill-opacity:1;fill-rule:nonzero;stroke:none"
         transform="matrix(0.13333333,0,0,-0.13333333,0,5333.3333)" />
      <path
         id="path93"
         d="m 13647.1,15007.3 c -127,0 -245.7,103.9 -278.2,252.8 -16.7,76.7 -7.6,152.2 20.9,214.5 162.1,-100.7 328.3,-191.1 496.9,-271.1 -27.5,-95.7 -96.9,-170.5 -190.2,-190.8 -16.5,-3.6 -33,-5.4 -49.4,-5.4"
         style="fill:#918796;fill-opacity:1;fill-rule:nonzero;stroke:none"
         transform="matrix(0.13333333,0,0,-0.13333333,0,5333.3333)" />
      <path
         id="path94"
         d="m 27892.2,29847.3 c -24.2,-263.3 -64.3,-524.2 -120.5,-781.3 -78.3,-361.4 -187.7,-715.1 -326.2,-1057.1 -600.6,-1483.7 -1750.5,-2747.7 -3324.1,-3459.4 -1577,-713.2 -3289.7,-740.6 -4802.9,-208.4 -332.3,117 -655,260.9 -964.2,430.5 -242.7,132.7 -476.9,281.3 -701.6,444.8 1583.9,398.3 3414.4,1040.8 5308.9,1897.6 1894.3,856.7 3585.5,1807.1 4930.6,2733.3"
         style="fill:#ffb200;fill-opacity:1;fill-rule:nonzero;stroke:none"
         transform="matrix(0.13333333,0,0,-0.13333333,0,5333.3333)" />
      <path
         id="path95"
         d="m 22961.6,27114 c 1894.3,856.7 3585.5,1807.1 4930.6,2733.3 -24.2,-263.3 -64.3,-524.2 -120.5,-781.3 -1035.1,-752 -2689,-1680.4 -4614.8,-2551.4 -1844.6,-834.3 -3564.1,-1446.3 -4802.6,-1743 -242.7,132.7 -476.9,281.3 -701.6,444.8 1583.9,398.3 3414.4,1040.8 5308.9,1897.6"
         style="fill:#d66b09;fill-opacity:1;fill-rule:nonzero;stroke:none"
         transform="matrix(0.13333333,0,0,-0.13333333,0,5333.3333)" />
      <path
         id="path96"
         d="m 27630.2,32340.8 c -1050.4,-849.4 -3125.1,-2038.4 -5603.6,-3159.5 -2478.2,-1120.8 -4741.6,-1893.7 -6073.2,-2121.4 -138.6,226.5 -264.3,464 -376.4,712 -5.2,11.7 -10.5,23.1 -15.7,35.1 -48.9,109.4 -94.3,219.4 -136.4,330.3 -99,259.1 -180.1,521.2 -243.7,784.6 -2.8,10.8 -5.3,21.2 -7.7,32 -92.5,391.8 -147.2,786.7 -165.1,1179.8 -34.7,748.3 62.7,1490.5 279.1,2194.5 161.3,524.3 388.4,1027.4 677,1496 652.1,1058.7 1616.5,1941.4 2835,2492.4 121.1,54.7 242.8,105.4 365.4,152.1 1641.7,626.3 3399.5,536.9 4909.1,-130.9 9.5,-4.3 19,-8.3 28.6,-12.9 654.8,-292.9 1262.4,-695.8 1792.8,-1195.8 259.4,-244.9 500.7,-513.2 719.2,-804 23.9,-31.3 47.3,-63.2 70.6,-95.2 19.4,-26.1 38.2,-52.6 56.9,-79.3 155.8,-221.9 299,-456 428.1,-701.3 48.2,-91 94.3,-183.8 138.3,-277.8 12,-25.8 24,-51.6 35.6,-77.8 112.2,-247.7 207.5,-499.3 286.1,-752.9"
         style="fill:#ffb200;fill-opacity:1;fill-rule:nonzero;stroke:none"
         transform="matrix(0.13333333,0,0,-0.13333333,0,5333.3333)" />
      <path
         id="path97"
         d="m 27308.4,33171.4 c 12.1,-25.7 24,-51.4 35.8,-77.5 112.2,-248 207.4,-499.4 286,-753 -1050.3,-849.4 -3125.1,-2038.5 -5603.6,-3159.5 -2478.3,-1120.8 -4741.7,-1893.7 -6073.1,-2121.4 -138.5,226.4 -264.4,464 -376.6,712 -5.3,11.6 -10.4,23.1 -15.5,34.9 1262.5,139.5 3566.5,887.2 6093,2029.8 2626.3,1187.8 4773.6,2476.9 5654,3334.7"
         style="fill:#d66b09;fill-opacity:1;fill-rule:nonzero;stroke:none"
         transform="matrix(0.13333333,0,0,-0.13333333,0,5333.3333)" />
      <path
         id="path98"
         d="m 15094.7,29965.3 c -33.1,0 -64.7,0.8 -95,2.4 l 17.2,332.2 c 886.9,-45.9 3199.1,687.2 5621.8,1782.8 2891.4,1307.8 4762,2566.6 5115.5,3134.2 l 282.4,-175.9 c -450.1,-723 -2613.5,-2064.1 -5260.8,-3261.4 -2425.2,-1096.9 -4678.1,-1814.3 -5681.1,-1814.3"
         style="fill:#d66b09;fill-opacity:1;fill-rule:nonzero;stroke:none"
         transform="matrix(0.13333333,0,0,-0.13333333,0,5333.3333)" />
      <path
         id="path99"
         d="m 15311.9,32163.7 -48.9,329.1 c 994.2,147.7 2715.7,738.6 4492.7,1542.3 1862.1,842.2 3474.4,1772.1 4207.4,2426.9 l 221.7,-248.2 c -756.6,-675.7 -2401.2,-1626.7 -4292,-2481.9 -1803.1,-815.5 -3558.4,-1416.4 -4580.9,-1568.2"
         style="fill:#d66b09;fill-opacity:1;fill-rule:nonzero;stroke:none"
         transform="matrix(0.13333333,0,0,-0.13333333,0,5333.3333)" />
      <path
         id="path100"
         d="m 15183.2,28787.6 c -3.6,0 -7,0 -10.5,0 l 1.6,332.7 c 3.2,0 6.5,0 9.8,0 1022,0 3402.2,766.2 5930.6,1909.7 2661.4,1203.7 4896.9,2559.9 5436.2,3298.1 l 268.6,-196.2 c -578.7,-792.3 -2816.2,-2160.7 -5567.6,-3405 -2567.6,-1161.3 -5003.1,-1939.3 -6068.7,-1939.3"
         style="fill:#d66b09;fill-opacity:1;fill-rule:nonzero;stroke:none"
         transform="matrix(0.13333333,0,0,-0.13333333,0,5333.3333)" />
      <path
         id="path101"
         d="m 19324.5,24258.1 -5.9,82.6 -31.2,77.5 12,4.8 13.2,1 c 876.3,63.2 2544.8,602.5 4250.8,1374.1 1715.3,775.8 3180.6,1645.8 3824.1,2270.5 l 115.9,-119.4 c -656.3,-637.2 -2139.8,-1519.6 -3871.5,-2302.7 -1748.8,-791 -3399.3,-1323 -4307.4,-1388.4"
         style="fill:#d66b09;fill-opacity:1;fill-rule:nonzero;stroke:none"
         transform="matrix(0.13333333,0,0,-0.13333333,0,5333.3333)" />
      <path
         id="path102"
         d="m 18068.9,25143.9 c 1782.6,-1140.4 4039.9,-1312.5 5980.4,-434.9 1940.8,877.7 3302.1,2686.3 3622.6,4778 -1339.1,-890.5 -2934.1,-1761.7 -4638.2,-2532.4 -1704.3,-770.8 -3411.8,-1393.2 -4964.8,-1810.7 m 3395.3,-1341.3 c -1384.5,0 -2760.2,431.4 -3914.5,1272.4 l -302,220 362.4,91.1 c 1630.4,410.1 3456,1062.7 5279.4,1887.4 1823.1,824.5 3518.7,1764.4 4903.5,2718 l 307.7,211.9 -34.2,-372.1 c -218.1,-2374.5 -1702.1,-4459.5 -3872.9,-5441.2 -870.8,-393.8 -1802.1,-587.5 -2729.4,-587.5"
         style="fill:#371a45;fill-opacity:1;fill-rule:nonzero;stroke:none"
         transform="matrix(0.13333333,0,0,-0.13333333,0,5333.3333)" />
      <path
         id="path103"
         d="m 27718.7,33936.4 c 6,-13.3 10.6,-27.2 13.9,-41.7 l -13.9,41.7"
         style="fill:#d66b09;fill-opacity:1;fill-rule:nonzero;stroke:none"
         transform="matrix(0.13333333,0,0,-0.13333333,0,5333.3333)" />
      <path
         id="path104"
         d="m 31059.3,33770 c 389.9,-861.9 -895.3,-2358.2 -3167.1,-3922.7 -1345.1,-926.2 -3036.3,-1876.6 -4930.6,-2733.3 -1894.5,-856.8 -3725,-1499.3 -5308.9,-1897.6 -2675.1,-672.8 -4647.1,-649.6 -5036.9,212.3 -354.1,782.8 673,2088.2 2565.3,3493.2 63.8,-263.5 144.8,-525.5 243.9,-784.7 -523.2,-427.8 -780.8,-767.2 -691.3,-965.1 91.1,-201.5 530.7,-229.8 1219.8,-112.1 1331.4,227.7 3594.8,1000.6 6073.1,2121.4 2478.5,1121 4553.3,2310.1 5603.6,3159.5 543.2,439.7 812.3,788.4 721.1,990 -89.4,197.6 -514.5,228.5 -1181,118.3 -129.2,245.5 -272.5,479.4 -428.2,701.3 2304.7,493.2 3963.2,402.3 4317.2,-380.5"
         style="fill:#ffcc4d;fill-opacity:1;fill-rule:nonzero;stroke:none"
         transform="matrix(0.13333333,0,0,-0.13333333,0,5333.3333)" />
      <path
         id="path105"
         d="m 15038,26369.7 c -496.8,0 -875.6,103.1 -1000.4,379.1 -178.5,394.5 228.6,989.2 1209.9,1767.5 l 155,-195.5 c -1230.6,-976.1 -1181.8,-1371.3 -1137.5,-1469.2 153.7,-339.8 1359.6,-364.7 3707,345 1291.3,390.9 2751.3,949.1 4222.2,1614.3 1470.9,665.2 2854.1,1392.9 4000.2,2104.4 2083.4,1294.1 2861,2216.2 2707.4,2555.9 -44.3,97.9 -308.7,395.6 -1854.5,116.1 l -44.5,245.5 c 1232.5,223 1947.8,135.9 2126.3,-258.8 347.1,-767.3 -1607.2,-2127.9 -2803.1,-2870.7 -1155.2,-717.1 -2548.3,-1450.1 -4029,-2119.8 -1480.6,-669.6 -2951.2,-1231.8 -4252.8,-1625.7 -862.8,-261 -2121.5,-588.1 -3006.2,-588.1"
         style="fill:#ffec90;fill-opacity:1;fill-rule:nonzero;stroke:none"
         transform="matrix(0.13333333,0,0,-0.13333333,0,5333.3333)" />
      <path
         id="path106"
         d="m 14677.2,25498.8 c -702.2,0 -1277.2,142.5 -1464.9,557.3 -347.6,768.7 871.2,1909.7 1955,2731.6 l 150.8,-198.9 c -1388.2,-1052.7 -2090.4,-1961.1 -1878.4,-2429.8 125.7,-277.9 597.7,-423.7 1332.9,-411.7 763,12.9 1797.1,193.1 2990.5,521.2 1470.6,404 3124.5,1014.1 4783,1764.2 1658.4,750 3208.6,1589.1 4483.2,2426.5 1034.5,679.6 1852.8,1337.2 2366.4,1901.6 493.9,542.9 696.8,994.9 571.1,1272.8 -212,468.7 -1357.7,541.3 -3065.1,194.1 l -49.7,244.5 c 1332.9,271.1 2994.7,432.8 3342.2,-335.8 471,-1041.4 -1960.6,-2784.6 -3027.9,-3485.8 -1285.2,-844.4 -2847.3,-1690 -4517.3,-2445.3 -1670.2,-755.4 -3336.8,-1370 -4819.7,-1777.5 -740.9,-203.6 -2091.3,-528.9 -3152.1,-529"
         style="fill:#ffec90;fill-opacity:1;fill-rule:nonzero;stroke:none"
         transform="matrix(0.13333333,0,0,-0.13333333,0,5333.3333)" />
      <path
         id="path107"
         d="m 15078.3,28625.3 c -1708.6,-1308.2 -2587.7,-2495.2 -2303.1,-3124.5 333.3,-737 2185.9,-780.9 4834.9,-114.7 1630.4,410.1 3456,1062.7 5279.4,1887.4 1823.1,824.5 3518.7,1764.4 4903.5,2718 2249.7,1549.3 3440.2,2969.5 3106.8,3706.4 -284.5,629.3 -1756.4,753 -3867.1,333.9 82,-127.5 159.9,-258 233,-390.6 727.1,106.1 1123.9,29.6 1245.1,-238.3 129.7,-286.8 -115.1,-667.5 -770.5,-1198 C 26631.4,31308 24522.3,30118.1 22098.7,29022 19675,27925.9 17388.8,27128 15983,26887.5 c -831.5,-141.9 -1279,-74.5 -1408.8,212.5 -121.1,267.9 83.6,616.5 643.6,1092.4 -51.3,142.4 -97.9,287.1 -139.5,432.9 m -580.1,-4056.4 c -1095.3,0 -1805.2,264.3 -2041.9,787.7 -518.6,1146.5 1419.2,2813.9 2620.5,3705.8 l 212.2,157.5 62.2,-256.8 c 62.6,-258.3 142.4,-515.2 237.2,-763.4 l 45.1,-118 -97.8,-79.9 c -688.3,-562.9 -643.4,-755.9 -642.6,-757.6 0.8,-1.7 119.6,-167.3 1030.9,-11.7 1357.5,232.2 3668.2,1040.1 6030.4,2108.4 2362.3,1068.3 4494.9,2270 5565.7,3136.1 718.3,581.4 672.6,780 671.8,781.7 -0.8,1.7 -116.2,162.8 -993,17.8 l -124.6,-20.6 -58.9,111.8 c -123.8,235.4 -264,464.9 -416.5,682.2 l -151.9,216.4 258.5,55.3 c 1463,313.1 3994.7,667.1 4513.3,-479.4 420,-928.7 -756.3,-2437.3 -3227.3,-4139 -1401.6,-965.2 -3116,-1915.6 -4957.8,-2748.6 -1842,-833.1 -3688,-1492.9 -5338.3,-1907.9 -1269.7,-319.4 -2349,-477.8 -3197.2,-477.8"
         style="fill:#371a45;fill-opacity:1;fill-rule:nonzero;stroke:none"
         transform="matrix(0.13333333,0,0,-0.13333333,0,5333.3333)" />
      <path
         id="path108"
         d="m 26890.2,32806.2 c -14.7,28.9 -29.6,57.6 -44.8,86.1 -129.1,245.5 -272.6,479.5 -428.1,701.4 -16.6,23.8 -33.6,47.2 -50.6,70.7 116.2,100.4 216.8,195.8 300.7,285.8 126.2,-187.4 243,-382.9 348.2,-582.8 0.3,-0.5 0.6,-1.1 0.9,-1.6 l 6.6,-12.7 c 52.5,-99.9 103.1,-203.1 150.8,-307.4 -85.7,-76.9 -180.4,-156.9 -283.7,-239.5 m -724.7,1122 c -179.4,223.1 -372.3,432.3 -576.8,626.5 129.4,113 237.1,219.1 321.2,317 199.1,-199.8 386.4,-414.9 559.9,-644.6 -79.8,-92.1 -182,-192.2 -304.3,-298.9 m -9275.8,815.2 c 549,582.7 1216.2,1067.4 1982,1413.7 834.8,377.6 1715.7,558.5 2586.4,558.5 786.6,0 1564.7,-147.7 2292.6,-431.8 -130.8,-103.8 -279.6,-212.9 -444.6,-326.2 -693.2,247.6 -1428.9,377.5 -2174.7,377.5 -889.6,0 -1793.5,-184.9 -2656.8,-575.4 -590.1,-266.9 -1120.6,-611.5 -1584.9,-1016.3 m 8451.1,35.1 c -481.4,412.4 -1018.6,749.3 -1591.6,1002.3 -24,10.6 -48.2,21.1 -72.3,31.4 157.3,113.2 297.9,221.8 419.5,324.7 567.6,-261.5 1098.8,-608.7 1572.5,-1035.9 -78.7,-94.5 -188.5,-202.7 -328.1,-322.5"
         style="fill:#ffd269;fill-opacity:1;fill-rule:nonzero;stroke:none"
         transform="matrix(0.13333333,0,0,-0.13333333,0,5333.3333)" />
      <path
         id="path109"
         d="m 27119.9,32302.5 c -31.9,78.6 -65.4,156.8 -100.5,234.5 -12,26.1 -23.9,51.7 -35.9,77.3 -30.1,64.8 -61.2,128.8 -93.3,191.9 103.3,82.6 198,162.6 283.7,239.5 3.6,-7.9 7.2,-15.9 10.9,-23.9 v 0 c 80.5,-178 152.9,-360.2 216.3,-543.5 -91,-57.9 -184.8,-116.5 -281.2,-175.8"
         style="fill:#e7a86e;fill-opacity:1;fill-rule:nonzero;stroke:none"
         transform="matrix(0.13333333,0,0,-0.13333333,0,5333.3333)" />
      <path
         id="path110"
         d="m 25588.7,34554.7 c -6.1,5.9 -12.3,11.7 -18.4,17.5 -75,70.7 -151.5,139.5 -229.5,206.3 139.6,119.8 249.4,228 328.1,322.5 82.2,-74.1 162.5,-150.5 241,-229.3 -84.1,-97.9 -191.8,-204 -321.2,-317"
         style="fill:#e7a86e;fill-opacity:1;fill-rule:nonzero;stroke:none"
         transform="matrix(0.13333333,0,0,-0.13333333,0,5333.3333)" />
      <path
         id="path111"
         d="m 23676.9,35812.2 c -122.1,52.3 -245.7,100.8 -370.8,145.4 165,113.3 313.8,222.4 444.6,326.2 116.5,-45.4 231.9,-94.5 345.7,-146.9 -121.6,-102.9 -262.2,-211.5 -419.5,-324.7"
         style="fill:#e7a86e;fill-opacity:1;fill-rule:nonzero;stroke:none"
         transform="matrix(0.13333333,0,0,-0.13333333,0,5333.3333)" />
      <path
         id="path112"
         d="m 26366.7,33664.4 c -2.1,2.8 -4.2,5.7 -6.3,8.6 -63.1,87 -128,172.1 -194.9,255.2 122.3,106.7 224.5,206.8 304.3,298.9 43.9,-58.1 87,-117.2 129.1,-177.2 5.9,-8.4 11.9,-17 17.8,-25.5 5.7,-8.2 11.4,-16.5 17.1,-24.7 11.3,-16.5 22.5,-32.9 33.6,-49.5 -83.9,-90 -184.5,-185.4 -300.7,-285.8"
         style="fill:#e7a86e;fill-opacity:1;fill-rule:nonzero;stroke:none"
         transform="matrix(0.13333333,0,0,-0.13333333,0,5333.3333)" />
      <path
         id="path113"
         d="m 27023.1,33353.1 -6.6,12.7 c 2.2,-4.3 4.4,-8.5 6.6,-12.7 m -389.3,646.6 c -5.7,8.2 -11.4,16.5 -17.1,24.7 5.7,-8.2 11.4,-16.5 17.1,-24.7"
         style="fill:#897892;fill-opacity:1;fill-rule:nonzero;stroke:none"
         transform="matrix(0.13333333,0,0,-0.13333333,0,5333.3333)" />
      <path
         id="path114"
         d="m 21458.1,36715.6 c -870.7,0 -1751.6,-180.9 -2586.4,-558.5 -2747.4,-1242.5 -4227.9,-4268.1 -3520.5,-7194.1 62.6,-258.3 142.4,-515.1 237.2,-763.3 45.2,-118.9 95,-238.5 148,-355.6 91.4,-202.3 193.9,-400.4 305.2,-590.5 1370.8,257 3617.5,1049.2 5912.8,2087.3 2295.4,1038.1 4374,2202.1 5472.3,3061.8 -69.2,208.8 -150.4,416.6 -241.9,619.1 v 0 c -53.1,117.3 -110,233.6 -169.2,345.6 -124,235.7 -264.2,465.2 -416.7,682.5 -1204.4,1715.1 -3145.6,2665.7 -5140.8,2665.7 m -5592,-9848.1 -61.9,101.2 c -142.6,233.2 -272.8,479.2 -386.7,731.2 -55.9,123.6 -108.5,249.8 -156.1,375.1 -100.1,261.8 -184.3,533 -250.4,805.7 -746.9,3089.3 816.1,6283.6 3716.5,7595.3 2900.4,1311.9 6331.3,376 8157.8,-2224.9 161.1,-229.5 309.1,-471.9 439.9,-720.4 62.3,-118.1 122.5,-240.9 178.5,-364.7 v 0 c 114.1,-252.4 212.9,-512.5 293.7,-773.3 l 35,-113.3 -92.2,-74.5 C 26631.4,31308 24522.3,30118.1 22098.7,29022 19675,27925.9 17388.8,27128 15983,26887.5 l -116.9,-20"
         style="fill:#371a45;fill-opacity:1;fill-rule:nonzero;stroke:none"
         transform="matrix(0.13333333,0,0,-0.13333333,0,5333.3333)" />
      <path
         id="path115"
         d="m 14468.7,24915.6 c -917.2,0 -1517.4,195.9 -1693.5,585.2 -175.2,387.4 90.5,986.1 719.4,1694.3 -292.6,-411.7 -431.3,-809.5 -282.3,-1139 187.7,-414.8 762.7,-557.3 1464.9,-557.3 1060.8,0.1 2411.2,325.4 3152.1,529 925.3,254.3 1922.3,589.3 2946.9,988.7 227.7,-36.7 485,-54.9 768.6,-54.9 222,0 460.2,11.1 713,33.1 -1610.8,-693.4 -3205.7,-1245.9 -4647.7,-1608.6 -1249.8,-314.3 -2322.1,-470.5 -3141.4,-470.5 m 220.5,831 c -687.4,0 -1128.6,145.2 -1249.5,412.4 -202.3,447.3 428,1295.1 1692.6,2286.6 1.8,-5.8 3.7,-11.6 5.5,-17.5 -901.8,-735.1 -1271.9,-1299.8 -1100.2,-1679.3 124.8,-276 503.6,-379.1 1000.4,-379.1 884.7,0 2143.4,327.1 3006.2,588.1 540.3,163.5 1109.5,355.9 1696.5,573 123.9,-180.9 330.1,-317.4 607.5,-411.4 -897.7,-339.4 -1769.6,-626.9 -2585.1,-850.9 -1193.4,-328.1 -2227.5,-508.3 -2990.5,-521.2 -28.2,-0.4 -56,-0.7 -83.4,-0.7 m 336.9,874.6 c -444.8,0 -696.4,87.3 -761.1,230.4 -36.3,80.2 -75.5,360.1 588.3,995.4 -279.8,-305.9 -368.8,-548.6 -279.1,-747 86.1,-190.5 312.3,-284.3 697.8,-284.3 167.3,0 364.6,17.7 593.5,52.8 l 0.6,-1 116.9,20 c 907.4,155.2 2181.8,542.7 3623.1,1092.8 0.1,-77.6 9.7,-151.8 29.2,-222.4 -575.6,-212.5 -1133.7,-401 -1663.3,-561.3 -1358.5,-410.7 -2334.7,-575.4 -2945.9,-575.4"
         style="fill:#cd9f4b;fill-opacity:1;fill-rule:nonzero;stroke:none"
         transform="matrix(0.13333333,0,0,-0.13333333,0,5333.3333)" />
      <path
         id="path116"
         d="m 15038,26369.7 c -496.8,0 -875.6,103.1 -1000.4,379.1 -171.7,379.5 198.4,944.2 1100.2,1679.3 3.2,-9.9 6.4,-19.9 9.6,-29.9 v 0 c 0.6,-1.9 1.2,-3.8 1.9,-5.6 0.3,-1.1 0.7,-2.2 1,-3.4 0.3,-0.8 0.6,-1.6 0.8,-2.4 21.3,-65.2 43.5,-130 66.7,-194.4 -145.2,-123.4 -266.5,-238.3 -364.5,-345.4 -663.8,-635.3 -624.6,-915.2 -588.3,-995.4 64.7,-143.1 316.3,-230.4 761.1,-230.4 611.2,0 1587.4,164.7 2945.9,575.4 529.6,160.3 1087.7,348.8 1663.3,561.3 10.4,-38.1 23.8,-75.1 40,-111 18.3,-40.5 40.2,-79.2 65.4,-116.1 -587,-217.1 -1156.2,-409.5 -1696.5,-573 -862.8,-261 -2121.5,-588.1 -3006.2,-588.1"
         style="fill:#cdb77d;fill-opacity:1;fill-rule:nonzero;stroke:none"
         transform="matrix(0.13333333,0,0,-0.13333333,0,5333.3333)" />
      <path
         id="path117"
         d="m 14677.2,25498.8 c -702.2,0 -1277.2,142.5 -1464.9,557.3 -149,329.5 -10.3,727.3 282.3,1139 392.7,442.3 926.9,927.3 1583.7,1430.2 17.2,-60.1 35.1,-120.1 54,-179.7 -1264.6,-991.5 -1894.9,-1839.3 -1692.6,-2286.6 120.9,-267.2 562.1,-412.4 1249.5,-412.4 27.4,0 55.2,0.3 83.4,0.7 763,12.9 1797.1,193.1 2990.5,521.2 815.5,224 1687.4,511.5 2585.1,850.9 127.9,-43.3 270.9,-77.5 428,-102.9 -1024.6,-399.4 -2021.6,-734.4 -2946.9,-988.7 -740.9,-203.6 -2091.3,-528.9 -3152.1,-529"
         style="fill:#cdb77d;fill-opacity:1;fill-rule:nonzero;stroke:none"
         transform="matrix(0.13333333,0,0,-0.13333333,0,5333.3333)" />
      <path
         id="path118"
         d="m 14484.6,24743.7 c -990.3,0 -1659.1,220.9 -1869,685 -344.1,761.7 618.7,2017.7 2413.5,3379.2 35,-137.5 74.5,-274.4 118.3,-409.7 -3.2,10 -6.4,20 -9.6,29.9 -1.8,5.9 -3.7,11.7 -5.5,17.5 -18.9,59.6 -36.8,119.6 -54,179.7 -656.8,-502.9 -1191,-987.9 -1583.7,-1430.2 -628.9,-708.2 -894.6,-1306.9 -719.4,-1694.3 176.1,-389.3 776.3,-585.2 1693.5,-585.2 819.3,0 1891.6,156.2 3141.4,470.5 1442,362.7 3036.9,915.2 4647.7,1608.6 187.9,16.3 383.9,38.6 587.3,66.8 -979.7,-439.1 -1941.2,-820.6 -2859.1,-1140.3 -818.3,-284.9 -1602.2,-520.8 -2333.3,-704.8 -1234.5,-310.4 -2319.4,-472.7 -3168.1,-472.7 m 787.4,2072 c -385.5,0 -611.7,93.8 -697.8,284.3 -89.7,198.4 -0.7,441.1 279.1,747 98,107.1 219.3,222 364.5,345.4 14.2,-39.3 28.7,-78.4 43.6,-117.4 7.2,-19 14.6,-38 22,-57.1 -427.5,-371.5 -630.9,-666.5 -549.8,-845.7 55.8,-123.3 241.7,-181.8 535,-181.8 141.8,0 308.7,13.7 498.1,40.3 12.4,-20.8 24.9,-41.4 37.5,-62 l 61.3,-100.2 c -228.9,-35.1 -426.2,-52.8 -593.5,-52.8 m -120.9,1571.1 c -0.2,0.8 -0.5,1.6 -0.8,2.4 0.3,-0.8 0.6,-1.6 0.8,-2.4 m -1.8,5.8 c -0.7,1.8 -1.3,3.7 -1.9,5.6 0.6,-1.9 1.2,-3.8 1.9,-5.6"
         style="fill:#371a45;fill-opacity:1;fill-rule:nonzero;stroke:none"
         transform="matrix(0.13333333,0,0,-0.13333333,0,5333.3333)" />
      <path
         id="path119"
         d="m 15866.1,26867.5 -0.6,1 -61.3,100.2 c -12.6,20.6 -25.1,41.2 -37.5,62 60,8.5 122.2,18.2 186.6,29.2 v 0 c 0.1,0 0.1,-0.1 0.1,-0.1 883.5,151 2177,542 3671.3,1115.5 -12.4,-67.1 -18.6,-132.2 -18.6,-195 -1441.3,-550.1 -2715.7,-937.6 -3623.1,-1092.8 l -116.9,-20 m -582.7,1150.4 c -7.4,19.1 -14.8,38.1 -22,57.1 -14.9,39 -29.4,78.1 -43.6,117.4 -23.2,64.4 -45.4,129.2 -66.7,194.4 -0.2,0.8 -0.5,1.6 -0.8,2.4 -0.3,1.2 -0.7,2.3 -1,3.4 -0.7,1.8 -1.3,3.7 -1.9,5.6 v 0 c -43.8,135.3 -83.3,272.2 -118.3,409.7 50,37.9 100.6,75.9 151.9,114 21.3,-87.6 44.4,-175 69.5,-262.1 50.2,-175.2 108.3,-349.6 174.4,-522.5 0,0 0.1,-0.1 0.1,-0.2 -49.6,-40.5 -96.8,-80.3 -141.6,-119.2"
         style="fill:#371a45;fill-opacity:1;fill-rule:nonzero;stroke:none"
         transform="matrix(0.13333333,0,0,-0.13333333,0,5333.3333)" />
      <path
         id="path120"
         d="m 16300.9,34317.6 c 2,2.7 3.9,5.3 5.9,8 -2,-2.7 -3.9,-5.3 -5.9,-8"
         style="fill:#33234a;fill-opacity:1;fill-rule:nonzero;stroke:none"
         transform="matrix(0.13333333,0,0,-0.13333333,0,5333.3333)" />
      <path
         id="path121"
         d="m 16431.7,34485.8 c 49.5,61.8 100.3,122.7 152.6,182.6 -52.1,-60 -102.9,-120.8 -152.6,-182.6"
         style="fill:#33234a;fill-opacity:1;fill-rule:nonzero;stroke:none"
         transform="matrix(0.13333333,0,0,-0.13333333,0,5333.3333)" />
      <path
         id="path122"
         d="m 16801.4,34906.3 c 58.5,61.4 118.5,121.3 179.7,180.1 -50.2,-48.5 -99.6,-97.6 -148.1,-147.4 -0.7,-0.7 -1.5,-1.5 -2.2,-2.3 -0.5,-0.5 -1,-1 -1.5,-1.5 -9.3,-9.6 -18.6,-19.2 -27.9,-28.9"
         style="fill:#33234a;fill-opacity:1;fill-rule:nonzero;stroke:none"
         transform="matrix(0.13333333,0,0,-0.13333333,0,5333.3333)" />
      <path
         id="path123"
         d="m 17081.9,35181.3 c 67.9,62.7 137.4,124.2 208.4,183.8 -71,-59.9 -140.5,-121.4 -208.4,-183.8"
         style="fill:#33234a;fill-opacity:1;fill-rule:nonzero;stroke:none"
         transform="matrix(0.13333333,0,0,-0.13333333,0,5333.3333)" />
      <path
         id="path124"
         d="m 21464.1,24152.6 c -520.6,0 -1040.2,64.5 -1545.7,192 945.2,190.6 2297.2,661.3 3713.5,1301.9 1405.5,635.6 2647.6,1336.7 3416.6,1918.9 -639.8,-1244.2 -1687,-2263 -2999.2,-2856.4 -824.8,-373.1 -1706.7,-556.4 -2585.2,-556.4 m -1914.9,297.2 c -321.7,102.4 -636.5,231 -940.5,385.4 1214.3,315.8 2826.7,900.8 4548.2,1679.4 1797.4,812.9 3357.7,1675.8 4399.4,2398.5 -86.5,-345.3 -201.9,-680.9 -343.7,-1003.3 -711,-608.2 -2074.8,-1399.7 -3649.2,-2111.7 -1563,-706.9 -3094.6,-1218.9 -4014.2,-1348.3"
         style="fill:#cd8c11;fill-opacity:1;fill-rule:nonzero;stroke:none"
         transform="matrix(0.13333333,0,0,-0.13333333,0,5333.3333)" />
      <path
         id="path125"
         d="m 18608.7,24835.2 c -184.1,93.5 -364.2,196.4 -539.8,308.7 230.5,62 464.2,128.4 701,199.2 0.2,0.1 0.3,0.1 0.5,0.1 2.7,0.9 5.5,1.7 8.2,2.5 0.6,0.2 1.2,0.4 1.8,0.5 2.3,0.7 4.5,1.4 6.8,2.1 1.4,0.4 2.7,0.8 4,1.2 1.7,0.5 3.4,1 5.1,1.5 1.9,0.6 3.7,1.1 5.6,1.7 1.2,0.3 2.4,0.7 3.6,1.1 2.9,0.8 5.8,1.7 8.7,2.6 0.1,0 0.3,0.1 0.4,0.1 1335.7,401.9 2761.8,940.6 4186.5,1583.4 0.1,0 0.2,0 0.3,0.1 3.4,1.5 6.9,3.1 10.3,4.7 0.2,0 0.4,0.1 0.5,0.2 7.2,3.2 14.3,6.4 21.5,9.7 v 0 0 c 1079,488 2114.3,1016.3 3068.6,1564.3 0.7,0.4 1.4,0.8 2.1,1.2 2.2,1.2 4.5,2.6 6.7,3.9 1.3,0.7 2.5,1.4 3.8,2.1 1.6,1 3.3,1.9 4.9,2.9 1.8,1 3.4,1.9 5.2,2.9 1.2,0.7 2.4,1.4 3.6,2.1 1.9,1.1 3.9,2.3 5.9,3.4 0.9,0.5 1.7,1 2.5,1.4 2.5,1.5 5,2.9 7.5,4.4 0.1,0 0.2,0.1 0.3,0.1 537.3,309.7 1048.5,625.4 1527.1,943.6 -29.7,-193.9 -68.4,-385.2 -115.6,-573.8 -1041.7,-722.7 -2602,-1585.6 -4399.4,-2398.5 C 21435.4,25736 19823,25151 18608.7,24835.2"
         style="fill:#ae5718;fill-opacity:1;fill-rule:nonzero;stroke:none"
         transform="matrix(0.13333333,0,0,-0.13333333,0,5333.3333)" />
      <path
         id="path126"
         d="m 19918.4,24344.6 c -124,31.3 -247,66.3 -369.2,105.2 919.6,129.4 2451.2,641.4 4014.2,1348.3 1574.4,712 2938.2,1503.5 3649.2,2111.7 -51.3,-116.5 -106,-231.4 -164.1,-344.4 -769,-582.2 -2011.1,-1283.3 -3416.6,-1918.9 -1416.3,-640.6 -2768.3,-1111.3 -3713.5,-1301.9"
         style="fill:#ae5718;fill-opacity:1;fill-rule:nonzero;stroke:none"
         transform="matrix(0.13333333,0,0,-0.13333333,0,5333.3333)" />
      <path
         id="path127"
         d="m 21463.9,23974.1 c -735.3,0 -1460.7,126.2 -2145.4,367 -332.3,117 -655,260.9 -964.2,430.5 -175.5,95.9 -346.5,200.2 -512.7,312.4 75.4,19.4 151.2,39.4 227.3,59.9 175.6,-112.3 355.7,-215.2 539.8,-308.7 304,-154.4 618.8,-283 940.5,-385.4 122.2,-38.9 245.2,-73.9 369.2,-105.2 505.5,-127.5 1025.1,-192 1545.7,-192 878.5,0 1760.4,183.3 2585.2,556.4 1312.2,593.4 2359.4,1612.2 2999.2,2856.4 58.1,113 112.8,227.9 164.1,344.4 141.8,322.4 257.2,658 343.7,1003.3 47.2,188.6 85.9,379.9 115.6,573.9 65.6,43.6 130.8,87.4 195.1,131.1 -23.7,-185.6 -55.5,-369.8 -95.3,-552.1 -78.3,-361.4 -187.7,-715.1 -326.2,-1057.1 -600.6,-1483.7 -1750.5,-2747.7 -3324.1,-3459.4 -863.5,-390.5 -1767.7,-575.4 -2657.5,-575.4 m -2694,1369 c 0.1,0 0.4,0.1 0.5,0.1 -0.2,0 -0.3,0 -0.5,-0.1 m 8.7,2.6 c 0.6,0.2 1.1,0.3 1.8,0.5 -0.6,-0.1 -1.2,-0.3 -1.8,-0.5 m 8.6,2.6 c 1.3,0.4 2.8,0.8 4,1.2 -1.3,-0.4 -2.6,-0.8 -4,-1.2 m 9.1,2.7 c 1.9,0.6 3.7,1.1 5.6,1.7 -1.9,-0.6 -3.7,-1.1 -5.6,-1.7 m 9.2,2.8 c 2.9,0.9 5.8,1.7 8.7,2.6 -2.9,-0.9 -5.8,-1.8 -8.7,-2.6 m 9.1,2.7 c 1335.6,401.9 2761.9,940.7 4186.5,1583.4 -1424.7,-642.8 -2850.8,-1181.5 -4186.5,-1583.4 m 4186.8,1583.5 c 3.5,1.6 6.9,3.1 10.3,4.7 -3.4,-1.6 -6.9,-3.2 -10.3,-4.7 m 10.8,4.9 c 7.2,3.2 14.3,6.4 21.5,9.7 -7.2,-3.3 -14.3,-6.5 -21.5,-9.7 m 21.5,9.7 c 1079,488 2114.3,1016.3 3068.6,1564.3 -954.3,-548 -1989.6,-1076.3 -3068.6,-1564.3 m 3070.7,1565.5 c 2.2,1.3 4.5,2.5 6.7,3.9 -2.2,-1.3 -4.5,-2.7 -6.7,-3.9 m 10.5,6 c 1.6,0.9 3.3,1.9 4.9,2.9 -1.6,-1 -3.3,-1.9 -4.9,-2.9 m 10.1,5.8 c 1.2,0.7 2.4,1.4 3.6,2.1 -1.2,-0.7 -2.4,-1.4 -3.6,-2.1 m 9.5,5.5 c 0.8,0.5 1.7,1 2.5,1.4 -0.8,-0.4 -1.6,-0.9 -2.5,-1.4 m 10,5.8 c 0.1,0 0.2,0.1 0.3,0.1 -0.1,0 -0.2,-0.1 -0.3,-0.1"
         style="fill:#371a45;fill-opacity:1;fill-rule:nonzero;stroke:none"
         transform="matrix(0.13333333,0,0,-0.13333333,0,5333.3333)" />
      <path
         id="path128"
         d="m 17841.6,25084 c -63.7,43 -126.6,87.1 -188.9,132.4 731.2,183.9 1514.9,419.8 2333.3,704.8 918,319.7 1879.4,701 2859.1,1140.3 v 0 c 38.7,17.4 77.6,34.9 116.5,52.5 1894.3,856.7 3585.5,1807.1 4930.6,2733.3 -7,-76.6 -15.4,-153 -25.2,-229.2 -64.3,-43.7 -129.5,-87.5 -195.1,-131.2 -478.6,-318.2 -989.8,-633.9 -1527.1,-943.6 -0.1,0 -0.2,-0.1 -0.3,-0.1 -2.5,-1.5 -5,-2.9 -7.5,-4.4 -0.8,-0.4 -1.7,-0.9 -2.5,-1.4 -2,-1.1 -4,-2.3 -5.9,-3.4 -1.2,-0.7 -2.4,-1.4 -3.6,-2.1 -1.8,-1 -3.4,-1.9 -5.2,-2.9 -1.6,-1 -3.3,-2 -4.9,-2.9 -1.3,-0.7 -2.5,-1.4 -3.8,-2.1 -2.2,-1.4 -4.5,-2.6 -6.7,-3.9 -0.7,-0.4 -1.4,-0.8 -2.1,-1.2 -954.3,-548 -1989.6,-1076.3 -3068.6,-1564.3 v 0 0 c -7.2,-3.3 -14.3,-6.5 -21.5,-9.7 -0.1,-0.1 -0.3,-0.2 -0.5,-0.2 -3.4,-1.6 -6.8,-3.1 -10.3,-4.7 -0.1,-0.1 -0.2,-0.1 -0.3,-0.1 -1424.6,-642.7 -2850.9,-1181.5 -4186.5,-1583.4 -0.1,0 -0.3,-0.1 -0.4,-0.1 -2.9,-0.9 -5.8,-1.7 -8.7,-2.6 -1.2,-0.4 -2.4,-0.8 -3.6,-1.1 -1.9,-0.6 -3.7,-1.1 -5.6,-1.7 -1.7,-0.5 -3.4,-1 -5.1,-1.5 -1.2,-0.4 -2.7,-0.8 -4,-1.2 -2.3,-0.7 -4.5,-1.4 -6.8,-2.1 -0.7,-0.2 -1.2,-0.3 -1.8,-0.5 -2.7,-0.8 -5.5,-1.6 -8.2,-2.5 -0.1,0 -0.4,-0.1 -0.5,-0.1 -236.8,-70.8 -470.5,-137.2 -701,-199.2 -76.1,-20.5 -151.9,-40.5 -227.3,-59.9"
         style="fill:#371a45;fill-opacity:1;fill-rule:nonzero;stroke:none"
         transform="matrix(0.13333333,0,0,-0.13333333,0,5333.3333)" />
      <path
         id="path129"
         d="m 19986,25921.2 c 917.9,319.7 1879.4,701.2 2859,1140.3 0.1,0 0.1,0 0.1,0 -979.7,-439.3 -1941.1,-820.6 -2859.1,-1140.3"
         style="fill:#371a45;fill-opacity:1;fill-rule:nonzero;stroke:none"
         transform="matrix(0.13333333,0,0,-0.13333333,0,5333.3333)" />
      <path
         id="path130"
         d="m 15742.8,27830 c -2.2,4.7 -4.3,9.4 -6.4,14.1 -50.4,111.4 -97.9,224.9 -141.3,338.1 l -6.7,17.5 c -35.1,91.8 -68.1,184.7 -98.9,278.5 -34.6,105.2 -66.5,211.3 -95.4,318 313.7,24 711.8,97.1 1173.8,212.8 343.2,-372.1 821.5,-603.4 1332.4,-639.4 -853.7,-273.3 -1592.6,-458.3 -2157.5,-539.6 m -428.3,1294.1 c -60.2,281.2 -100.4,562.6 -121.5,843.3 234,9.7 524.9,52.5 862,125.1 12.9,-63.3 26.9,-126.5 41.8,-189.7 2.4,-10.8 4.8,-21.3 7.6,-31.8 1.4,-5.5 2.9,-11.4 4.5,-17.8 52.4,-203 134.3,-390 239.9,-558 -410.1,-97.4 -760.6,-156.3 -1034.3,-171.1 m -137.5,1175.3 c -13.8,643.4 72.2,1277.6 248.2,1882.4 171.7,29.4 361.4,70 566.4,120.9 -58.2,-401.3 -79,-809.7 -60,-1220 10,-220.8 31.6,-442.1 65.1,-663.1 -324.6,-70.7 -601.7,-112 -819.7,-120.2 m 364.9,2242.5 c 281.9,788.6 719.7,1517.6 1290.2,2139.6 -262.2,-442.2 -470.7,-913.9 -621.3,-1404.4 -62.2,-202.2 -114.5,-407.6 -156.7,-615.4 -182.8,-48 -354.2,-88.1 -512.2,-119.8"
         style="fill:#cd8c11;fill-opacity:1;fill-rule:nonzero;stroke:none"
         transform="matrix(0.13333333,0,0,-0.13333333,0,5333.3333)" />
      <path
         id="path131"
         d="m 16041.6,27253.6 c -108.7,185.7 -209,379 -298.8,576.4 564.9,81.3 1303.8,266.3 2157.5,539.6 46.6,-3.3 93.4,-5 140.4,-5 197.9,0 399.1,29.4 598.2,91.4 1223,380.6 2722.8,956 4310.9,1674.4 1620.3,733.1 3068.3,1494.9 4170.1,2172.1 13.6,-33.5 26.9,-67.1 39.9,-100.8 -1131.4,-822.5 -3027.1,-1870 -5111.3,-2818.1 -0.1,-0.1 0,-0.1 -0.2,-0.1 -2.2,-1 -4.2,-2 -6.5,-3 l -0.2,-0.1 c -2.2,-1 -4.1,-1.9 -6.4,-2.9 -0.1,0 -0.4,-0.2 -0.6,-0.2 -2,-1 -4,-1.9 -6.1,-2.8 -0.1,-0.1 -0.4,-0.2 -0.6,-0.3 -1.9,-0.9 -3.9,-1.8 -5.9,-2.7 -0.4,-0.2 -0.9,-0.4 -1.4,-0.6 -4,-1.9 -8.1,-3.7 -12.2,-5.6 -0.4,-0.1 -0.7,-0.3 -1.1,-0.5 -2,-0.9 -3.8,-1.7 -5.8,-2.6 -0.1,0 -0.1,0 -0.2,-0.1 -2.3,-1 -4.1,-1.9 -6.4,-2.9 -0.4,-0.2 -0.5,-0.2 -0.9,-0.4 -4.2,-1.9 -8.3,-3.8 -12.5,-5.7 -0.3,-0.1 -1,-0.4 -1.3,-0.6 -4.1,-1.8 -8.2,-3.7 -12.2,-5.5 -0.5,-0.2 -1.2,-0.5 -1.6,-0.7 -3.9,-1.8 -8,-3.6 -12,-5.4 v 0 0 c -2295.3,-1038.1 -4542,-1830.3 -5912.8,-2087.3"
         style="fill:#ae5718;fill-opacity:1;fill-rule:nonzero;stroke:none"
         transform="matrix(0.13333333,0,0,-0.13333333,0,5333.3333)" />
      <path
         id="path132"
         d="m 15193,29967.4 c -8.3,110.8 -13.6,221.6 -16,332 218,8.2 495.1,49.5 819.7,120.2 16.5,-109.2 35.9,-218.2 58.3,-327.1 -337.1,-72.6 -628,-115.4 -862,-125.1"
         style="fill:#ae5718;fill-opacity:1;fill-rule:nonzero;stroke:none"
         transform="matrix(0.13333333,0,0,-0.13333333,0,5333.3333)" />
      <path
         id="path133"
         d="m 15425.2,32181.8 c 35.3,121.2 74.3,241.5 116.7,360.1 158,31.7 329.4,71.8 512.2,119.8 -24.2,-118.9 -45,-238.6 -62.5,-359 -205,-50.9 -394.7,-91.5 -566.4,-120.9"
         style="fill:#ae5718;fill-opacity:1;fill-rule:nonzero;stroke:none"
         transform="matrix(0.13333333,0,0,-0.13333333,0,5333.3333)" />
      <path
         id="path134"
         d="m 15394.1,28796.2 c -15.1,55.5 -29.4,111.1 -42.9,166.8 -12.9,53.6 -25.2,107.4 -36.7,161.1 273.7,14.8 624.2,73.7 1034.3,171.1 64.6,-102.7 138.1,-198.5 219.1,-286.2 -462,-115.7 -860.1,-188.8 -1173.8,-212.8"
         style="fill:#ae5718;fill-opacity:1;fill-rule:nonzero;stroke:none"
         transform="matrix(0.13333333,0,0,-0.13333333,0,5333.3333)" />
      <path
         id="path135"
         d="m 15595.1,28182.2 c -2.2,5.8 -4.5,11.7 -6.7,17.5 -35.1,91.8 -68.1,184.7 -98.9,278.5 30.8,-93.8 63.8,-186.7 98.9,-278.5 l 6.7,-17.5 m 6371.3,1164.1 c 0.4,0.2 1.1,0.5 1.6,0.7 -0.6,-0.2 -1,-0.4 -1.6,-0.7 m 13.8,6.2 c 0.3,0.2 1,0.5 1.3,0.6 -0.5,-0.2 -0.9,-0.4 -1.3,-0.6 m 13.8,6.3 c 0.4,0.2 0.5,0.2 0.9,0.4 -0.3,-0.1 -0.7,-0.3 -0.9,-0.4 m 7.3,3.3 c 0.1,0.1 0.1,0.1 0.2,0.1 l -0.2,-0.1 m 6,2.7 c 0.4,0.2 0.7,0.4 1.1,0.5 -0.4,-0.1 -0.7,-0.3 -1.1,-0.5 m 13.3,6.1 c 0.5,0.2 1,0.4 1.4,0.6 -0.4,-0.2 -1,-0.4 -1.4,-0.6 m 7.3,3.3 c 0.2,0.1 0.5,0.2 0.6,0.3 -0.1,-0.1 -0.4,-0.2 -0.6,-0.3 m 6.7,3.1 c 0.2,0 0.5,0.2 0.6,0.2 -0.1,0 -0.4,-0.2 -0.6,-0.2 m 7,3.1 0.2,0.1 -0.2,-0.1 m 6.7,3.1 c 0.2,0 0.1,0 0.2,0.1 l -0.2,-0.1"
         style="fill:#371a45;fill-opacity:1;fill-rule:nonzero;stroke:none"
         transform="matrix(0.13333333,0,0,-0.13333333,0,5333.3333)" />
      <path
         id="path136"
         d="m 27159.8,32201.7 c -13,33.7 -26.3,67.3 -39.9,100.8 96.4,59.3 190.2,117.9 281.2,175.8 8.7,-25.2 17.2,-50.4 25.6,-75.6 -44.1,-34.5 -89.9,-69.6 -137.1,-105.1 -0.3,-0.2 -0.5,-0.4 -0.8,-0.6 -0.9,-0.7 -1.7,-1.3 -2.6,-1.9 -0.5,-0.4 -1,-0.8 -1.5,-1.2 -0.6,-0.4 -1.3,-1 -1.9,-1.4 -0.6,-0.4 -1.3,-1 -1.9,-1.4 -0.5,-0.4 -1,-0.8 -1.5,-1.2 -0.9,-0.6 -1.9,-1.3 -2.7,-2 -0.2,-0.1 -0.4,-0.3 -0.6,-0.4 -0.9,-0.7 -1.9,-1.4 -2.9,-2.1 -0.2,-0.2 -0.4,-0.4 -0.6,-0.5 -1,-0.7 -2,-1.5 -2.9,-2.2 -0.2,-0.1 -0.4,-0.3 -0.6,-0.4 -0.9,-0.7 -1.9,-1.5 -2.9,-2.2 -0.2,-0.2 -0.3,-0.3 -0.6,-0.4 -34.4,-25.8 -69.8,-51.8 -105.8,-78"
         style="fill:#bb8464;fill-opacity:1;fill-rule:nonzero;stroke:none"
         transform="matrix(0.13333333,0,0,-0.13333333,0,5333.3333)" />
      <path
         id="path137"
         d="m 27265.6,32279.7 c 0.3,0.1 0.4,0.2 0.6,0.4 -0.2,-0.2 -0.4,-0.3 -0.6,-0.4 m 3.5,2.6 c 0.2,0.1 0.4,0.3 0.6,0.4 -0.2,-0.2 -0.4,-0.3 -0.6,-0.4 m 3.5,2.6 c 0.2,0.1 0.4,0.3 0.6,0.5 -0.2,-0.2 -0.4,-0.4 -0.6,-0.5 m 3.5,2.6 c 0.2,0.1 0.4,0.3 0.6,0.4 -0.2,-0.1 -0.4,-0.2 -0.6,-0.4 m 3.3,2.4 c 0.5,0.4 1,0.8 1.5,1.2 -0.6,-0.4 -0.9,-0.7 -1.5,-1.2 m 3.4,2.6 c 0.6,0.4 1.3,1 1.9,1.4 -0.7,-0.5 -1.3,-0.9 -1.9,-1.4 m 3.4,2.6 c 0.9,0.6 1.7,1.2 2.6,1.9 -0.9,-0.6 -1.7,-1.3 -2.6,-1.9 m 3.4,2.5 c 47.2,35.5 93,70.6 137.1,105.1 v 0 c -44.2,-34.6 -89.9,-69.6 -137.1,-105.1"
         style="fill:#74607f;fill-opacity:1;fill-rule:nonzero;stroke:none"
         transform="matrix(0.13333333,0,0,-0.13333333,0,5333.3333)" />
      <path
         id="path138"
         d="m 15953.3,27059.9 c -138.5,226.3 -264.2,464 -376.1,712.1 -5.3,11.7 -10.5,22.9 -15.7,35 -49.2,109.1 -94.6,219.4 -136.5,330.1 v 0 c -66.1,173 -124.2,347.4 -174.5,522.7 -25.1,87.2 -48.1,174.6 -69.3,262.2 -2.8,10.9 -5.2,20.9 -7.6,31.8 -92.7,391.9 -147.5,786.7 -165.2,1179.8 -34.6,748.5 62.8,1490.4 279.2,2194.5 161.1,524.5 388.3,1027.6 677.1,1496.1 104.1,169.2 216.3,333.9 336.2,493.4 -2.7,-3.6 -5.4,-7.2 -8.1,-10.7 -10.1,-13.6 -20.2,-27.3 -30.2,-41 10,13.6 20.1,27.3 30.2,41 14.6,19.5 29.5,38.8 44.5,58.2 -10.3,-13.1 -20.5,-26.3 -30.5,-39.5 40.8,54 82.4,107.4 124.9,160.2 -2.3,-2.8 -4.6,-5.7 -6.8,-8.5 57.1,71.3 115.8,141.3 176.1,210.2 -5.6,-6.4 -11.2,-12.7 -16.7,-19.1 70.2,81 142.6,160.3 217.1,237.9 -1.8,-1.9 -3.5,-3.7 -5.3,-5.5 11,11.5 22.1,23 33.2,34.4 0.5,0.5 1,1 1.5,1.5 0.7,0.8 1.5,1.6 2.2,2.3 153,157.2 314.8,307.2 485.1,449.3 -155.9,-197 -299.7,-402.4 -430.6,-615.1 -18.7,-30.4 -37.2,-61 -55.4,-91.7 -570.5,-622 -1008.3,-1351 -1290.2,-2139.6 -42.4,-118.6 -81.4,-238.9 -116.7,-360.1 -176,-604.8 -262,-1239 -248.2,-1882.4 2.4,-110.4 7.7,-221.2 16,-332 21.1,-280.7 61.3,-562.1 121.5,-843.3 11.5,-53.7 23.8,-107.5 36.7,-161.1 13.5,-55.7 27.8,-111.3 42.9,-166.8 28.9,-106.7 60.8,-212.8 95.4,-318 30.8,-93.8 63.8,-186.7 98.9,-278.5 2.2,-5.8 4.5,-11.7 6.7,-17.5 43.4,-113.2 90.9,-226.7 141.3,-338.1 2.1,-4.7 4.2,-9.4 6.4,-14.1 89.8,-197.4 190.1,-390.7 298.8,-576.4 1370.8,257 3617.5,1049.2 5912.8,2087.3 v 0 0 c 4,1.8 8.1,3.6 12,5.4 0.6,0.3 1,0.5 1.6,0.7 4,1.8 8.1,3.7 12.2,5.5 0.4,0.2 0.8,0.4 1.3,0.6 4.2,1.9 8.3,3.8 12.5,5.7 0.2,0.1 0.6,0.3 0.9,0.4 2.3,1 4.1,1.9 6.4,2.9 l 0.2,0.1 c 2,0.9 3.8,1.7 5.8,2.6 0.4,0.2 0.7,0.4 1.1,0.5 4.1,1.9 8.2,3.7 12.2,5.6 0.4,0.2 1,0.4 1.4,0.6 2,0.9 4,1.8 5.9,2.7 0.2,0.1 0.5,0.2 0.6,0.3 2.1,0.9 4.1,1.8 6.1,2.8 0.2,0 0.5,0.2 0.6,0.2 2.3,1 4.2,1.9 6.4,2.9 l 0.2,0.1 c 2.3,1 4.3,2 6.5,3 l 0.2,0.1 c 2084.2,948.1 3979.9,1995.6 5111.3,2818.1 36,26.2 71.4,52.2 105.8,78 0.2,0.1 0.4,0.2 0.6,0.4 1,0.7 2,1.5 2.9,2.2 0.2,0.1 0.4,0.2 0.6,0.4 0.9,0.7 1.9,1.5 2.9,2.2 0.2,0.1 0.4,0.3 0.6,0.5 1,0.7 2,1.4 2.9,2.1 0.2,0.2 0.4,0.3 0.6,0.4 0.8,0.7 1.8,1.4 2.7,2 0.6,0.5 0.9,0.8 1.5,1.2 0.6,0.4 1.3,1 1.9,1.4 0.6,0.5 1.2,0.9 1.9,1.4 0.5,0.4 1,0.8 1.5,1.2 0.9,0.6 1.7,1.3 2.6,1.9 0.3,0.2 0.5,0.4 0.8,0.6 47.2,35.5 92.9,70.5 137.1,105.1 v 0 c -8.4,25.2 -16.9,50.4 -25.6,75.6 51.3,32.6 101.6,65 151.1,97.2 27.8,-78.2 53.6,-156.3 78.2,-234.9 -1050.5,-849.1 -3125.4,-2038.2 -5603.9,-3159.2 -834,-377.3 -1643.8,-715.2 -2401.8,-1006.1 0,0.1 0.1,0.2 0.1,0.3 -1494.7,-573.5 -2788.2,-964.6 -3671.5,-1115.7"
         style="fill:#371a45;fill-opacity:1;fill-rule:nonzero;stroke:none"
         transform="matrix(0.13333333,0,0,-0.13333333,0,5333.3333)" />
      <path
         id="path139"
         d="m 15953.4,27059.8 c 0,0 0,0.1 -0.1,0.1 883.3,151.1 2176.8,542.2 3671.5,1115.7 0,-0.1 -0.1,-0.2 -0.1,-0.3 -1494.3,-573.5 -2787.8,-964.5 -3671.3,-1115.5 m -528.4,1077.3 c 0,0.1 -0.1,0.2 -0.1,0.2 -66.1,172.9 -124.2,347.3 -174.4,522.5 50.3,-175.3 108.4,-349.7 174.5,-522.7 v 0"
         style="fill:#371a45;fill-opacity:1;fill-rule:nonzero;stroke:none"
         transform="matrix(0.13333333,0,0,-0.13333333,0,5333.3333)" />
      <path
         id="path140"
         d="m 16262.6,34265.9 c 10,13.7 20.1,27.4 30.2,41 -10.1,-13.7 -20.2,-27.4 -30.2,-41 m 30.2,41 c 2.7,3.5 5.4,7.1 8.1,10.7 2,2.7 3.9,5.3 5.9,8 10,13.2 20.2,26.4 30.5,39.5 -15,-19.4 -29.9,-38.7 -44.5,-58.2"
         style="fill:#342149;fill-opacity:1;fill-rule:nonzero;stroke:none"
         transform="matrix(0.13333333,0,0,-0.13333333,0,5333.3333)" />
      <path
         id="path141"
         d="m 16424.9,34477.3 c 2.2,2.8 4.5,5.7 6.8,8.5 49.7,61.8 100.5,122.6 152.6,182.6 5.5,6.4 11.1,12.7 16.7,19.1 -60.3,-68.9 -119,-138.9 -176.1,-210.2"
         style="fill:#342149;fill-opacity:1;fill-rule:nonzero;stroke:none"
         transform="matrix(0.13333333,0,0,-0.13333333,0,5333.3333)" />
      <path
         id="path142"
         d="m 16796.1,34900.8 c 1.8,1.8 3.5,3.6 5.3,5.5 9.3,9.7 18.6,19.3 27.9,28.9 -11.1,-11.4 -22.2,-22.9 -33.2,-34.4 m 34.7,35.9 c 0.7,0.8 1.5,1.6 2.2,2.3 -0.7,-0.7 -1.5,-1.5 -2.2,-2.3"
         style="fill:#342149;fill-opacity:1;fill-rule:nonzero;stroke:none"
         transform="matrix(0.13333333,0,0,-0.13333333,0,5333.3333)" />
    </g>
  </g>
</svg>
